<svg xmlns="http://www.w3.org/2000/svg" width="606" height="528" fill="none"><path d="M486.7 449H163C77.2 430 7 364.5 7 266.5c0-14.8 1.6-29.5 4.8-44l261-42L474 148a360 360 0 0141.2 31.4l-192.7 73.5-90.9 34.7 102-25.3 212-52.7a361.6 361.6 0 0135 46l-64.1 48 72.3-34.3 1 1.6A119 119 0 01486.6 449z" fill="#63FFD4"/><path d="M486.7 449H163C77.2 430 7 364.5 7 266.5c0-14.8 1.6-29.5 4.8-44l261-42L474 148a360 360 0 0141.2 31.4l-192.7 73.5-90.9 34.7 102-25.3 212-52.7a361.6 361.6 0 0135 46l-64.1 48 72.3-34.3 1 1.6A119 119 0 01486.6 449z" fill="url(#paint0_linear)" fill-opacity=".5"/><path d="M263.8 162C174.2 181.2 81 201.5 13.4 216.4c1.5-5.9 3.2-11.6 5.2-17.3A359 359 0 01216.2 94.6 362 362 0 01435 125.7c-49 10.1-109.3 23-171.2 36.3z" fill="#63FFD4"/><path d="M263.8 162C174.2 181.2 81 201.5 13.4 216.4c1.5-5.9 3.2-11.6 5.2-17.3A359 359 0 01216.2 94.6 362 362 0 01435 125.7c-49 10.1-109.3 23-171.2 36.3z" fill="url(#paint1_linear)" fill-opacity=".5"/><path d="M93.7 143a52.4 52.4 0 100-105 52.4 52.4 0 000 105z" fill="#FF7264"/><path d="M93.7 143a52.4 52.4 0 100-105 52.4 52.4 0 000 105z" fill="url(#paint2_radial)" fill-opacity=".5"/><path d="M486 449c-32.2 31-140.2 32.2-312.5 2-3.5-.5-7-1.2-10.5-2C77.2 430 7 364.5 7 266.5a204.1 204.1 0 0111.5-67.4c24.3-68.5 84.5-117 154.9-117 17.5 0 31.3 4.6 42.7 12.5 21 14.4 34 39.6 47.6 67.4l9 18.4c12.8 25.7 27.4 51.9 49.8 72.5a141.6 141.6 0 0017.2 13.6c134 89.8 178.8 151.3 146.3 182.5z" fill="#2CCBBB"/><path d="M486 449c-32.2 31-140.2 32.2-312.5 2-3.5-.5-7-1.2-10.5-2C77.2 430 7 364.5 7 266.5a204.1 204.1 0 0111.5-67.4c24.3-68.5 84.5-117 154.9-117 17.5 0 31.3 4.6 42.7 12.5 21 14.4 34 39.6 47.6 67.4l9 18.4c12.8 25.7 27.4 51.9 49.8 72.5a141.6 141.6 0 0017.2 13.6c134 89.8 178.8 151.3 146.3 182.5z" fill="url(#paint3_radial)" fill-opacity=".5"/><path opacity=".7" d="M378 428c30.9 0 55.9-4.2 55.9-9.4s-25-9.4-55.9-9.4c-30.8 0-55.8 4.2-55.8 9.4s25 9.4 55.8 9.4zM78 323.1c30.8 0 55.8-4.2 55.8-9.4s-25-9.4-55.9-9.4c-30.8 0-55.8 4.2-55.8 9.4s25 9.4 55.8 9.4z" fill="#25AC9F"/><path d="M85.4 285c-9.3 12-8.2 28.3-8.2 28.3s16-3.2 25.2-15.3c9.2-12 8.2-28.4 8.2-28.4s-16 3.3-25.2 15.3z" fill="#25AC9F"/><path d="M91.4 287.6c-1.8 15.1-14 26-14 26s-9.1-13.4-7.3-28.5c1.8-15 13.9-26 13.9-26s9.2 13.4 7.4 28.5z" fill="#63FFD4"/><path opacity=".7" d="M234.5 392.4c26.4 0 47.8-3.6 47.8-8 0-4.5-21.4-8.1-47.8-8.1s-47.7 3.6-47.7 8c0 4.5 21.3 8.1 47.7 8.1z" fill="#25AC9F"/><path d="M450.7 348c0 52.3-31.1 70.6-69.5 70.6a117.5 117.5 0 01-8-.2c-34.6-2.5-61.5-21.7-61.5-70.4 0-50.4 64.3-114 69.1-118.8l.3-.2s69.6 66.6 69.6 119z" fill="#63FFD4"/><path d="M450.7 348c0 52.3-31.1 70.6-69.5 70.6a117.5 117.5 0 01-8-.2c-34.6-2.5-61.5-21.7-61.5-70.4 0-50.4 64.3-114 69.1-118.8l.3-.2s69.6 66.6 69.6 119z" fill="url(#paint4_radial)" fill-opacity=".5"/><path d="M378.7 410.6l25.4-35.5-25.5 39.4v4.1l-5.3-.2L376 366v-.5l.3-5-25.6-39.5 25.7 35.8v1l2-39.5-21.8-40.9 22.1 34 2.1-82.2v-.2.2l-.3 64.8 21.8-25.7-21.9 31.2-.5 35.5 20.3-34-20.4 39.2-.3 19.7 29.5-47.4-29.6 54.3-.7 43.8z" fill="#030D54"/><path opacity=".7" d="M154.3 259.8c40.3 0 72.9-5.5 72.9-12.3 0-6.8-32.6-12.3-72.9-12.3-40.2 0-72.9 5.5-72.9 12.3 0 6.8 32.7 12.3 73 12.3z" fill="#25AC9F"/><path d="M249.1 155.3c0 68.3-40.5 92.2-90.6 92.3a154 154 0 01-10.4-.4C103 244 67.8 219 67.8 155.4c0-65.8 84-148.9 90.2-155l.4-.4S249 87 249 155.3z" fill="#63FFD4"/><path d="M249.1 155.3c0 68.3-40.5 92.2-90.6 92.3a154 154 0 01-10.4-.4C103 244 67.8 219 67.8 155.4c0-65.8 84-148.9 90.2-155l.4-.4S249 87 249 155.3z" fill="url(#paint5_radial)" fill-opacity=".5"/><path d="M155.2 237.1l33.1-46.4-33.2 51.5v5.3c-2.4 0-4.7-.1-7-.3l3.6-68.4v-.6l.3-6.5-33.3-51.6L152 167l.1 1.3 2.7-51.6-28.6-53.3 29 44.2L158 .4V0v.4l-.4 84.4L186 51.3l-28.5 40.8-.8 46.3L183.3 94l-26.7 51.2-.4 25.7 38.5-61.8-38.6 70.8-1 57.2z" fill="#030D54"/><path d="M578 489l-.1.5c-1.7 4.5-27.7 12.5-69.8 20a1279.9 1279.9 0 01-218.6 18.2c-157 .1-284.6-28-288.4-38.2l-.1-.4v-.3l.1-.2c4.2-8.7 131.7 4.2 288.4 4.2 30.5 0 59.9-.4 87.5-1.2 54.7-1.4 102.4-3.8 137.6-5l10-.4c32.2-1 51.7-1 53.3 2.4v.2l.1.3z" fill="#2CCBBB"/><path d="M578 489l-.1.5c-1.7 4.5-27.7 12.5-69.8 20a1279.9 1279.9 0 01-218.6 18.2c-157 .1-284.6-28-288.4-38.2l-.1-.4v-.3l.1-.2c4.2-8.7 131.7 4.2 288.4 4.2 30.5 0 59.9-.4 87.5-1.2 54.7-1.4 102.4-3.8 137.6-5l10-.4c32.2-1 51.7-1 53.3 2.4v.2l.1.3z" fill="url(#paint6_linear)" fill-opacity=".5"/><path d="M289.5 506.6c159.3 0 288.5-7.9 288.5-17.5 0-9.7-129.2-17.5-288.5-17.5S1 479.4 1 489.1c0 9.6 129.2 17.5 288.5 17.5z" fill="#63FFD4"/><path d="M289.5 506.6c159.3 0 288.5-7.9 288.5-17.5 0-9.7-129.2-17.5-288.5-17.5S1 479.4 1 489.1c0 9.6 129.2 17.5 288.5 17.5z" fill="url(#paint7_linear)" fill-opacity=".5"/><path opacity=".4" d="M497.5 495.3c12.6 0 22.8-2.2 22.8-5s-10.2-5.1-22.8-5.1c-12.6 0-22.8 2.3-22.8 5 0 2.9 10.2 5.1 22.8 5.1zM410.3 495.3c12.5 0 22.7-2.2 22.7-5s-10.2-5.1-22.7-5.1c-12.6 0-22.8 2.3-22.8 5 0 2.9 10.2 5.1 22.8 5.1z" fill="#2CCBBB"/><path fill-rule="evenodd" clip-rule="evenodd" d="M411.2 489l-1.3-20v-.1l-1.3.4-6 17.3-9.4-6.6 15-11h.1l1-.7-15.7-8.9-3.9 4.3.6 4 18.1.3v.4l-18.4-.3-.7-4.5 5.3-5.8 7.9-9.3.1.4 1.7-1.8 6.2 1.1v-.3h.4v.4l9.2 1.6-8.6 17.3-1.2.9v.2l19.9-7-2.4 18.7-16.9-10.8-.6-.4 10 16.1-9.1 4zm-.8-19.3l1.1 18.6 8.2-3.5-9.3-15.1zm-8 16.3l-8.5-6 14.1-10.3-5.6 16.3zm8.3-17.4l.4.2 16.4 10.5 2.2-17.3-19 6.6zm-1-.6l-.4-.9-6.6-17.7 1.7-1.9 6 1.1-.5 19.3h-.1zm-15.8-8.8l15.2 8.5-.2-.4-6.5-17.6-7.5 8.3-1 1.2zm16.4 8.4l.6-19 8.6 1.6-8.3 16.7-1 .7z" fill="#28316D"/><path d="M429.3 447.1l8.7 8.6-2.7 2.8-8.7-8.6 2.7-2.8z" fill="#28316D"/><path fill-rule="evenodd" clip-rule="evenodd" d="M490.6 445.2a24 24 0 1112.8 46.3 24 24 0 01-12.8-46.3zm-11.3 27a18.1 18.1 0 1035.4-7.7 18.1 18.1 0 00-35.4 7.6z" fill="#28316D"/><path d="M458.7 417.1s24-.8 24.5 2.3c.5 3-24 1.8-24 1.8s-2-2-.5-4.1z" fill="#676D98"/><path fill="#030D54" d="M435 429.5h4.2v36.9H435z"/><path opacity=".1" d="M439.3 429.5v2.8l-4.3.4v-3.2h4.3z" fill="#000"/><path d="M439 426.4c-.6 0-1.2 0-1.8-.2-2.3-.4-8.1-1.4-9.7.2-2 2-1.3 5.4 4 5.9 5.2.5 14.1-.8 16-2.8 0 0-3.3-2.7-8.6-3z" fill="#28316D"/><path d="M438.1 439.6l44.6-13.9 1.5 3.5-45.7 15.7-.4-5.3zM451.3 461.5l32.2-31.7 1.8 2.6-30.7 32-3.3-2.9zM459.3 425.8l22.4-7.7s4 .5 2.4 3.7l-22.5 6.7s-3.4.4-2.3-2.8z" fill="#030D54"/><path fill-rule="evenodd" clip-rule="evenodd" d="M425.8 450.1a24.2 24.2 0 018 22 24 24 0 11-8-22zM393 474.4a18.1 18.1 0 1034-12.3 18.1 18.1 0 00-34 12.3z" fill="#28316D"/><path opacity=".1" d="M434.1 468.3c0 1.2 0 2.5-.3 3.7l-6-.5c.5-2.5.5-5 0-7.4l5.7-1.1c.4 1.7.6 3.5.6 5.3zM439.3 462v4.4H435v-3.7l4.3-.6z" fill="#000"/><path d="M411.8 468.2s34.3-9 37.1-5.5c2.8 3.4 5.7 8-3 9.6-8.6 1.6-34.7-2.8-34.7-2.8l.6-1.3z" fill="#030D54"/><path opacity=".1" d="M428.7 453l-4.4 4c-.7-1-1.6-1.8-2.6-2.6l4.1-4.3 2.9 3z" fill="#000"/><path d="M410.7 466.4l25.6-26.8.8 6.2-25 23-1.4-2.4z" fill="#030D54"/><path opacity=".1" d="M410.4 470.8a2.6 2.6 0 100-5.2 2.6 2.6 0 000 5.2z" fill="#000"/><path d="M410 470.8a2.6 2.6 0 100-5.2 2.6 2.6 0 000 5.2z" fill="#676D98"/><path opacity=".1" d="M450.5 470.8a5.2 5.2 0 100-10.4 5.2 5.2 0 000 10.4z" fill="#000"/><path d="M450.9 470.8a5.2 5.2 0 100-10.4 5.2 5.2 0 000 10.4z" fill="#676D98"/><path d="M449.2 467.1c-.5-.6-.4-1.4.3-1.9.6-.5 1.4-.3 1.9.3l4.1 5.5c.5.6.4 1.5-.2 2-.6.4-1.5.3-2-.3l-4.1-5.6z" fill="#28316D"/><path opacity=".1" d="M449 464.4l-5.4 2.9-1.6-1.2v-.9a12.3 12.3 0 006.5-2.3l.4 1.5z" fill="#000"/><path fill="#6C63FF" d="M445.4 471.3h12.2v3.9h-12.2z"/><path fill="#28316D" d="M445.4 471.3h12.2v3.9h-12.2z"/><path fill-rule="evenodd" clip-rule="evenodd" d="M498 489l-1.2-20-1.3.4-6 17.3-9.4-6.7 15-10.9h.2l1-.7-15.8-8.9-3.9 4.3.6 4 18.1.3v.4L477 468l-.7-4.5 5.3-5.8 7.9-9.2.1.4 1.7-1.8 6.2 1v-.2h.4v.4l9.3 1.6-8.7 17.3-1.2.9v.2l20-7-2.5 18.7-16.9-10.8-.6-.4 10 16.1-9.1 4zm-.7-19.3l1.2 18.7 8.1-3.6-9.3-15zm-8 16.4l-8.5-6 14.1-10.3-5.5 16.3zm8.3-17.4l.5.2 16.3 10.5 2.2-17.3-19 6.6zm-1-.7l-.4-.8-6.5-17.8 1.6-1.8 6 1-.5 19.4h-.1zm-15.8-8.8l15.3 8.6-.3-.4-6.4-17.6-7.6 8.3-1 1.1zm16.4 8.5l.6-19 8.7 1.6L498 467l-1 .7z" fill="#28316D"/><path d="M497.9 466.7l-2.3 1.3-16-44.5-.7-2 3.8-2.1 1 3 14.2 44.3z" fill="#030D54"/><path opacity=".1" d="M496.8 470.6a2.6 2.6 0 100-5.3 2.6 2.6 0 000 5.3z" fill="#000"/><path d="M497 470.9a2.6 2.6 0 100-5.2 2.6 2.6 0 000 5.2z" fill="#676D98"/><path opacity=".1" d="M492.4 450.7l-3 1-2-5.4c1.1-.4 2.2-.8 3.2-1l1.8 5.4zM483.6 422.3l-4 1.2-.7-2 3.8-2.1 1 3z" fill="#000"/><path opacity=".4" d="M263.6 494.3c9.7 0 17.5-1.5 17.5-3.5s-7.8-3.5-17.5-3.5c-9.6 0-17.5 1.6-17.5 3.5 0 2 7.9 3.5 17.5 3.5zM329.6 494.3c9.7 0 17.5-1.5 17.5-3.5s-7.8-3.5-17.5-3.5c-9.6 0-17.5 1.6-17.5 3.5 0 2 7.9 3.5 17.5 3.5z" fill="#2CCBBB"/><path fill-rule="evenodd" clip-rule="evenodd" d="M274 482.5a10 10 0 11-19.9 0 10 10 0 0119.9 0zm-3.6 0a6.3 6.3 0 11-12.6 0 6.3 6.3 0 0112.6 0zM339.2 482.6a10 10 0 11-19.8 0 10 10 0 0119.8 0zm-3.5 0a6.3 6.3 0 11-12.6 0 6.3 6.3 0 0112.6 0z" fill="#28316D"/><path fill-rule="evenodd" clip-rule="evenodd" d="M327.2 459.4L309.9 476l1.6 2.1 15.7-15.8v-3z" fill="#28316D" stroke="#030D54" stroke-width="1.4" stroke-linejoin="round"/><path fill-rule="evenodd" clip-rule="evenodd" d="M315.2 473.2l-51.1 8.3v1.6l47-4.8 4-5zM254.8 473s8.4-6.9 15.8-1.8l9.4 7s3.3.4 3.2-.5c0-.7 1.6.4 1.8 0 .1-.3-1.7-1-5.7-3.4-5-3-12.7-9-19.3-6-6.6 2.8-5.2 4.6-5.2 4.6z" fill="#28316D" stroke="#030D54" stroke-width="1.4" stroke-linejoin="round"/><path d="M264 485.4a3.2 3.2 0 100-6.3 3.2 3.2 0 000 6.3z" fill="#030D54"/><path d="M264 484.4a2.2 2.2 0 100-4.3 2.2 2.2 0 000 4.3z" fill="#fff" fill-opacity=".4"/><path d="M326.7 414c.6.2 2.2 2 2.2 2l2.5 65.6-4 .3-1.6-65.7-.3-1.8c-.2-.3.6-.5 1.2-.3z" fill="#030D54"/><path d="M317 408.4c0 .6 0 1.2.3 1.8.2.6.5 1 .9 1.2l13.3 7.5-.2-3-12.5-8.8c-.2-.2-.5-.2-.8-.1-.5.1-.8.6-1 1.4z" fill="#676D98"/><path d="M329.6 485.8a3.2 3.2 0 100-6.3 3.2 3.2 0 000 6.3z" fill="#030D54"/><path d="M329.6 484.8a2.2 2.2 0 100-4.3 2.2 2.2 0 000 4.3z" fill="#fff" fill-opacity=".4"/><path fill-rule="evenodd" clip-rule="evenodd" d="M317.4 383c1.2 0 2.2 1 2.2 2.2 0 1.2-1 2.2-2.2 2.2-1.3 0-2.3-1-2.3-2.2 0-1.3 1-2.3 2.3-2.3z" fill="#FF3F64"/><path fill-rule="evenodd" clip-rule="evenodd" d="M295 419c1.3 0 2.3 1 2.3 2.2 0 1.2-1 2.2-2.3 2.2-1.2 0-2.3-1-2.3-2.2 0-1.2 1-2.2 2.3-2.2zM412.6 398.9c1.2 0 2.2 1 2.2 2.2 0 1.2-1 2.2-2.2 2.2-1.3 0-2.3-1-2.3-2.2 0-1.2 1-2.2 2.3-2.2zM355 462.4c1.2 0 2.2 1 2.2 2.3 0 1.2-1 2.2-2.3 2.2-1.2 0-2.2-1-2.2-2.2 0-1.3 1-2.3 2.2-2.3z" fill="#4629D3"/><path d="M309.5 483.6c0-1-1-2-2-2a2 2 0 00-2 2c0 1.1.8 2 2 2a2 2 0 002-2zM363.7 369.9c0-1.1-.9-2-2-2a2 2 0 00-2 2c0 1 .9 2 2 2a2 2 0 002-2z" stroke="#63FFD4" stroke-width=".5"/><path fill-rule="evenodd" clip-rule="evenodd" d="M348.1 401.1c1.3 0 2.3 1 2.3 2.2 0 1.3-1 2.3-2.3 2.3-1.2 0-2.2-1-2.2-2.3 0-1.2 1-2.2 2.2-2.2z" fill="#FF7264"/><path d="M387.4 426.8c0-1.1-.8-2-2-2a2 2 0 00-2 2c0 1 1 2 2 2a2 2 0 002-2zM294.4 454.8c0-1.1-.9-2-2-2a2 2 0 00-2 2c0 1 .9 2 2 2a2 2 0 002-2z" stroke="#FF3F64" stroke-width=".5"/><path fill-rule="evenodd" clip-rule="evenodd" d="M357 436.8h-2.4l1.6 2-.6 2.4 2.3-.9 2.1 1.5-.2-2.5 2-1.6-2.5-.7-1-2.4-1.2 2.2zM444 392.2h-2.4l1.6 2-.6 2.5 2.3-.9 2.1 1.5-.2-2.6 2-1.5-2.5-.7-1-2.4-1.2 2.1z" fill="#FFC217"/><path fill-rule="evenodd" clip-rule="evenodd" d="M552 165c-.7-1-2-1.3-3-.6-1.1.7-1.4 2-.7 3.1.7 1 2.1 1.3 3.1.6 1-.6 1.3-2 .6-3z" fill="#FF3F64"/><path fill-rule="evenodd" clip-rule="evenodd" d="M520.9 193.8c-.7-1-2.1-1.3-3.2-.6-1 .7-1.3 2.1-.6 3.1.7 1 2.1 1.4 3.2.7 1-.7 1.3-2.1.6-3.2zM471.9 85c-.7-1-2.1-1.2-3.2-.5a2.3 2.3 0 002.5 3.7c1.1-.7 1.4-2 .7-3.1zM451.1 168.6c-.7-1-2.1-1.3-3.1-.6a2.3 2.3 0 002.5 3.7c1-.6 1.3-2 .6-3z" fill="#4629D3"/><path d="M437 113a2 2 0 012.7.6 2 2 0 01-.5 2.8 2 2 0 01-2.8-.5 2 2 0 01.6-2.8zM523.4 109.3a2 2 0 012.7.5 2 2 0 01-.5 2.8 2 2 0 01-2.8-.5 2 2 0 01.6-2.8z" stroke="#63FFD4" stroke-width=".5"/><path fill-rule="evenodd" clip-rule="evenodd" d="M483.2 184.9c-.7-1-2.1-1.4-3.2-.7-1 .7-1.3 2.1-.6 3.2.7 1 2.1 1.3 3.2.6 1-.7 1.3-2.1.6-3.1z" fill="#FF7264"/><path d="M552 129.4a2 2 0 012.8.6 2 2 0 01-.5 2.8 2 2 0 01-2.8-.6 2 2 0 01.6-2.8zM483.3 207.3a2 2 0 012.8.5 2 2 0 01-.5 2.8 2 2 0 01-2.8-.6 2 2 0 01.5-2.7z" stroke="#FF3F64" stroke-width=".5"/><path fill-rule="evenodd" clip-rule="evenodd" d="M496.4 110l1.3 2.1-2.5-.2-1.7 1.9-.6-2.5-2.4-.9 2.3-1.3.2-2.4 1.9 1.6 2.5-.6-1 2.3zM428.7 149l1.4 2-2.6-.2-1.6 1.9-.6-2.4-2.4-1 2.2-1.2.2-2.5 2 1.7 2.5-.6-1 2.3z" fill="#FFC217"/><path fill-rule="evenodd" clip-rule="evenodd" d="M79 451.7c-1.3 8 .9 14.5 3.2 21a70 70 0 0010.5 19c-2.9-42-6-51.6-8.5-51.6-2.2-.1-4.4 7.3-5.2 11.6" fill="#FF7264"/><path fill-rule="evenodd" clip-rule="evenodd" d="M79 451.7c-1.3 8 .9 14.5 3.2 21a70 70 0 0010.5 19c-2.9-42-6-51.6-8.5-51.6-2.2-.1-4.4 7.3-5.2 11.6" fill="url(#paint8_radial)" fill-opacity=".2"/><path fill-rule="evenodd" clip-rule="evenodd" d="M93 491c-2-.3.8-21 4.2-35 1-4 1.7-6.2 2.3-6.2 1.2.1 1.6 8.9 1 16.1-1.2 12.8-5.8 25.5-7.4 25.2" fill="#FF7264"/><path fill-rule="evenodd" clip-rule="evenodd" d="M93 491c-2-.3.8-21 4.2-35 1-4 1.7-6.2 2.3-6.2 1.2.1 1.6 8.9 1 16.1-1.2 12.8-5.8 25.5-7.4 25.2" fill="url(#paint9_radial)" fill-opacity=".2"/><path fill-rule="evenodd" clip-rule="evenodd" d="M93.4 491.7c-1.1 1.2-21.2-13-20-22.2 0-.4.2-2 1-2.2 1.7-.6 4.4 4.5 8.4 10.4 7 10.5 11 13.4 10.6 14" fill="#FF7264"/><path fill-rule="evenodd" clip-rule="evenodd" d="M93.4 491.7c-1.1 1.2-21.2-13-20-22.2 0-.4.2-2 1-2.2 1.7-.6 4.4 4.5 8.4 10.4 7 10.5 11 13.4 10.6 14" fill="url(#paint10_radial)" fill-opacity=".2"/><path fill-rule="evenodd" clip-rule="evenodd" d="M104 484.4c.6 3-7 7.8-8.3 6.7-.9-.9 1.6-4.9 1.8-5 1-1.6 2.3-3.8 4-3.6 1 0 2.3.8 2.5 1.9" fill="#FF7264"/><path fill-rule="evenodd" clip-rule="evenodd" d="M104 484.4c.6 3-7 7.8-8.3 6.7-.9-.9 1.6-4.9 1.8-5 1-1.6 2.3-3.8 4-3.6 1 0 2.3.8 2.5 1.9" fill="url(#paint11_radial)" fill-opacity=".2"/><path d="M173 491.1c0-8-22.4-9.5-18.4-16 3.4-5.3 9.3 4.5 11.5 1.5 2.1-3-12.9-11-7.8-15 4.7-3.8 7.7 15 12.5 9.8 3.8-4-18-18.6-12-23.1 4.5-3.3 8.9 15 11.6 10.8 2-3.1-12-21-3.6-22 6.6-.9 1.3 17.4 7 17.8 6.8.3 6-19.3 12.3-15.5 6.3 3.7-10.7 18.3-7.8 21 4.3 3.8 12.3-10.5 14.4-2.7 1.2 4.5-5.6 6.9-13.5 9.7-6.7 2.4-7.4 10.5 2.2 7 5.6-2 11.1-11.9 15-8.6 5.1 4.2-8.5 10.6-15 12.2-5.7 1.4-6.8 5.5 1.5 6.1 6.9.5 4.6 5.6-1.2 4.9-7-1-8.7 7.3-8.7 2.1" fill="#4629D3"/><path d="M173 491.1c0-8-22.4-9.5-18.4-16 3.4-5.3 9.3 4.5 11.5 1.5 2.1-3-12.9-11-7.8-15 4.7-3.8 7.7 15 12.5 9.8 3.8-4-18-18.6-12-23.1 4.5-3.3 8.9 15 11.6 10.8 2-3.1-12-21-3.6-22 6.6-.9 1.3 17.4 7 17.8 6.8.3 6-19.3 12.3-15.5 6.3 3.7-10.7 18.3-7.8 21 4.3 3.8 12.3-10.5 14.4-2.7 1.2 4.5-5.6 6.9-13.5 9.7-6.7 2.4-7.4 10.5 2.2 7 5.6-2 11.1-11.9 15-8.6 5.1 4.2-8.5 10.6-15 12.2-5.7 1.4-6.8 5.5 1.5 6.1 6.9.5 4.6 5.6-1.2 4.9-7-1-8.7 7.3-8.7 2.1" fill="url(#paint12_linear)" fill-opacity=".2"/><path fill-rule="evenodd" clip-rule="evenodd" d="M197.9 492.6c0-1.1-1-2-2-2.6-.9-.6-2-1.1-2.3-2.2-.2-.4-.2-1 .1-1.4.4-.4 1.1-.2 1.6 0 .5.4.9.8 1.4 1h.5c.4 0 .4-.7.2-1-.4-.8-1.2-1.3-1.8-1.9a5 5 0 01-1.5-3c-.1-.7 0-1.7.8-2 .7-.1 1.4.4 1.8 1l.8 1.6c.1.5.2 1.1.7 1.4.5.3 1.2 0 1.5-.5.3-.6.2-1.2.1-1.8-.2-1-.7-1.9-1.4-2.6-.6-.7-1.5-1.3-1.8-2.3a3 3 0 01.3-2.3c.6-1 1.6-1.8 2.6-1.5.7.1 1.3.8 1.5 1.6.2.7.2 1.5.1 2.2l-.4 3.4c-.1.5-.2 1.2.3 1.5.4.2.9 0 1-.4.3-.4.2-.9.1-1.3s-.3-.8-.2-1.2c.2-.4.6-.6 1-.6 1-.2 2.2 1.1 2 2.3-.4 1.5-2.3 2-3.2 3.2v.3c0 .2.3.3.5.2.7-.2 1.3-.8 2-1 .7-.4 1.7-.3 2 .4.3.5 0 1.2-.5 1.6-.5.4-1.1.5-1.7.7-.6 0-1.2.3-1.7.7-.1.1-.3.3-.2.6 0 .2.2.4.5.5.5.3 1.2.1 1.8 0 .5-.2 1.2-.4 1.8-.2.6.2 1 .8.8 1.4-.1.3-.4.5-.6.6-.8.5-1.7.9-2.7.8-.5 0-1-.3-1.6-.5l-2-.2s-.3 0-.4.2c-.3.3 0 .8.3 1l1.2-.1c.3 0 .8 0 1 .4.1.5-.3 1-.8 1-.5.2-1 0-1.4 0-.6 0-1.1.3-1.6.7 0 0-.1.2-.3.2-.1 0-.3-.1-.2-.2" fill="#030D54"/><path opacity=".7" fill-rule="evenodd" clip-rule="evenodd" d="M124.4 476.3c4.8-5 14-2 18.6 2.4 3.4 3.1 6.3 8.8 4.6 11.6-.9 1.3-2.4 1-12.3 1-9.5-.1-10.8 0-12-1.3-3-3-2.4-10.1 1-13.7zM112.3 488.4c0-1.7 3-3.6 5.3-2.8 2 .7 3.5 3 2.8 4.5-.7 1.6-3.7 1.7-5.7.8-.2 0-2.4-1-2.4-2.5" fill="#25AC9F"/><path d="M540.1 145.3c-2.5-.6-5-1-7.7-1.2a1.9 1.9 0 10-3.6-.9c-2.4-.9-4.9-1.6-7.4-2.2-5.6-1.3-10.3-1.7-10.4-1-.2.8 4.2 2.5 9.8 3.8 2.5.6 5 1 7.6 1.3v.7a1.3 1.3 0 00-.6 2c-1 0-1.9.6-2.4 1.4-.4-.5-1-1-1.6-1l-18.6-5.3a7.5 7.5 0 00-5.2-4.4l-11.8-2.7c-2.4-.6-4.9 0-6.7 1.7l-18-3.3c-.6-.1-1.2 0-1.8.2-.1-.9-.6-1.6-1.3-2.1.4-.2.7-.5.8-1 .1-.5-.1-1-.6-1.3l.2-.5c2.5.9 5 1.6 7.5 2.2 5.6 1.3 10.2 1.7 10.4 1 .2-.9-4.2-2.5-9.8-3.8-2.5-.6-5-1-7.6-1.3.2-1-.4-2-1.4-2.3-1-.2-2 .5-2.3 1.5a54 54 0 00-7.4-2.2c-5.6-1.3-10.2-1.7-10.4-1-.2.8 4.2 2.5 9.8 3.8 2.5.6 5 1 7.6 1.2v.7a1.3 1.3 0 00-.6 2 3.5 3.5 0 00-2.9 2.7l-.5 2.3a3.5 3.5 0 002.5 4.2l1.4.3c1 .3 2.2 0 3-.7.4.6 1 1.1 1.8 1.3l17.4 4.5c.3 1 .9 2 1.6 2.8-2 1.4-10.4 7.7-12.5 21.6 0 0 .6 2.3 3.8.9 0 0 1.8-15.7 13-19.7 0 1 .8 1.9 1.8 2.2l1.3.2c-2.8.5-5 2.6-5.6 5.3a6.7 6.7 0 1013 3c.6-2.7-.4-5.5-2.7-7.2l1.3.3c1 .3 2-.2 2.6-1.1 8.3 8.5 3 23.4 3 23.4 2.3 2.6 3.8.8 3.8.8 4.8-15.4-2.1-25.3-2.1-25.3h-.2c.8-.4 1.5-1 2.1-1.5l18.5 3.7c.9.2 1.7 0 2.4-.5.4 1.1 1.3 1.9 2.4 2.1l1.3.3a3.5 3.5 0 004.1-2.6l.6-2.3c.3-1.3-.2-2.7-1.3-3.6a1.3 1.3 0 00.3-2.3l.2-.5a54 54 0 007.5 2.2c5.5 1.3 10.2 1.7 10.4 1 .2-.8-4.2-2.5-9.8-3.8z" fill="url(#paint13_linear)"/><path d="M487.3 166.5a6.5 6.5 0 103-12.5 6.5 6.5 0 00-3 12.5z" fill="#28316D"/><path d="M487.8 164.5a4.4 4.4 0 102-8.5 4.4 4.4 0 00-2 8.5z" fill="#676D98"/><path d="M488.1 163a2.9 2.9 0 101.3-5.5 2.9 2.9 0 00-1.3 5.5z" fill="#030D54"/><path d="M481.1 148.6s-10.2 5.5-12.4 20.6c0 0 .6 2.1 3.6.8 0 0 2.2-19.2 17.6-19.4l-8.8-2zM500.7 153.1s6.8 9.5 2.2 24c0 0-1.5 1.7-3.7-.9 0 0 6.6-18.2-7.2-25l8.7 2z" fill="#28316D"/><rect x="480.5" y="135.1" width="26.4" height="14.7" rx="7.3" transform="rotate(13 480.5 135)" fill="#030D54"/><path d="M482.2 147l-20-5.1a3 3 0 01-2.2-3.7l.2-.8c.3-1.6 2-2.7 3.5-2.4l20.3 3.8a3 3 0 012.5 3.7l-.5 2.3a3.1 3.1 0 01-3.8 2.3zM500.3 151.3l20.3 4c1.6.4 3.2-.7 3.6-2.3l.2-.8a3 3 0 00-2.2-3.7l-19.9-5.5a3 3 0 00-3.8 2.3l-.6 2.2a3.1 3.1 0 002.4 3.8z" fill="#6C63FF"/><path d="M482.2 147l-20-5.1a3 3 0 01-2.2-3.7l.2-.8c.3-1.6 2-2.7 3.5-2.4l20.3 3.8a3 3 0 012.5 3.7l-.5 2.3a3.1 3.1 0 01-3.8 2.3zM500.3 151.3l20.3 4c1.6.4 3.2-.7 3.6-2.3l.2-.8a3 3 0 00-2.2-3.7l-19.9-5.5a3 3 0 00-3.8 2.3l-.6 2.2a3.1 3.1 0 002.4 3.8z" fill="#676D98"/><rect x="455" y="131.6" width="8" height="8.9" rx="4" transform="rotate(13 455 131.6)" fill="#030D54"/><rect x="523.9" y="147.5" width="8" height="8.9" rx="4" transform="rotate(13 523.9 147.5)" fill="#030D54"/><rect x="457.1" y="130.1" width="4.8" height="2.4" rx="1.2" transform="rotate(13 457 130.1)" fill="#28316D"/><rect x="458.4" y="126.3" width="3.6" height="5.4" rx="1.8" transform="rotate(13 458.4 126.3)" fill="#28316D"/><path d="M450.2 128.5c5.4 1.3 10 1.7 10.1 1 .2-.8-4-2.4-9.5-3.6-5.4-1.3-10-1.7-10-1-.3.8 4 2.4 9.4 3.6z" fill="#6C63FF"/><path d="M468.3 132.7c5.4 1.3 10 1.7 10.1 1 .2-.8-4-2.4-9.5-3.6-5.4-1.3-9.9-1.7-10-1-.2.8 4 2.4 9.4 3.6z" fill="#6C63FF"/><rect x="526.1" y="146" width="4.8" height="2.4" rx="1.2" transform="rotate(13 526.1 146)" fill="#28316D"/><rect x="527.4" y="142.2" width="3.6" height="5.4" rx="1.8" transform="rotate(13 527.4 142.2)" fill="#28316D"/><path d="M519.2 144.5c5.4 1.2 10 1.6 10.1.9.2-.7-4-2.3-9.5-3.6-5.4-1.2-9.9-1.7-10-1-.2.8 4 2.4 9.4 3.7z" fill="#6C63FF"/><path d="M537.4 148.6c5.4 1.3 9.9 1.7 10 1 .2-.7-4-2.3-9.4-3.6-5.4-1.2-10-1.7-10.1-1-.2.8 4 2.4 9.5 3.6z" fill="#6C63FF"/><path d="M450.2 128.5c5.4 1.3 10 1.7 10.1 1 .2-.8-4-2.4-9.5-3.6-5.4-1.3-10-1.7-10-1-.3.8 4 2.4 9.4 3.6z" fill="#676D98"/><path d="M468.3 132.7c5.4 1.3 10 1.7 10.1 1 .2-.8-4-2.4-9.5-3.6-5.4-1.3-9.9-1.7-10-1-.2.8 4 2.4 9.4 3.6zM519.2 144.5c5.4 1.2 10 1.6 10.1.9.2-.7-4-2.3-9.5-3.6-5.4-1.2-9.9-1.7-10-1-.2.8 4 2.4 9.4 3.7z" fill="#676D98"/><path d="M537.4 148.6c5.4 1.3 9.9 1.7 10 1 .2-.7-4-2.3-9.4-3.6-5.4-1.2-10-1.7-10.1-1-.2.8 4 2.4 9.5 3.6z" fill="#676D98"/><rect x="485.4" y="148.4" width="12" height="4.8" rx="2.4" transform="rotate(13 485.4 148.4)" fill="#6C63FF"/><rect x="485.4" y="148.4" width="12" height="4.8" rx="2.4" transform="rotate(13 485.4 148.4)" fill="#676D98"/><path d="M235.3 368.6c-5.4 7.1-4.8 16.8-4.8 16.8s9.4-2 14.8-9c5.4-7.2 4.8-16.9 4.8-16.9s-9.4 2-14.8 9.1z" fill="#2CCBBB"/><path d="M239 370.7c-1.1 8.9-8.3 15.3-8.3 15.3s-5.5-7.9-4.4-16.7c1-8.9 8.2-15.3 8.2-15.3s5.5 7.9 4.4 16.7z" fill="#63FFD4"/><path d="M336.7 421.5a4 4 0 000-1.9c-.1-.6-.4-1-.8-1.3l-6-3.7c-1.4-1-4.1-2.1-4.1-2.1l-1 1 10 9c.2.2.5.3.8.2.4 0 .8-.5 1-1.2z" fill="#28316D"/><path d="M327.3 418.4a3.2 3.2 0 100-6.4 3.2 3.2 0 000 6.4z" fill="#030D54"/><path d="M327.3 417.4a2.2 2.2 0 100-4.4 2.2 2.2 0 000 4.4z" fill="#fff" fill-opacity=".4"/><defs><radialGradient id="paint2_radial" cx="0" cy="0" r="1" gradientUnits="userSpaceOnUse" gradientTransform="matrix(0 104.885 -104.792 0 93.7 38)"><stop stop-color="#fff" stop-opacity="0"/><stop offset="1" stop-color="#fff"/></radialGradient><radialGradient id="paint3_radial" cx="0" cy="0" r="1" gradientUnits="userSpaceOnUse" gradientTransform="matrix(0 390.941 -489.103 0 251.7 82)"><stop stop-color="#fff" stop-opacity="0"/><stop offset="1" stop-color="#fff"/></radialGradient><radialGradient id="paint4_radial" cx="0" cy="0" r="1" gradientUnits="userSpaceOnUse" gradientTransform="matrix(0 189.687 -138.981 0 381.2 229)"><stop stop-color="#fff" stop-opacity="0"/><stop offset="1" stop-color="#fff"/></radialGradient><radialGradient id="paint5_radial" cx="0" cy="0" r="1" gradientUnits="userSpaceOnUse" gradientTransform="matrix(0 247.559 -181.383 0 158.5 0)"><stop stop-color="#fff" stop-opacity="0"/><stop offset="1" stop-color="#fff"/></radialGradient><radialGradient id="paint8_radial" cx="0" cy="0" r="1" gradientUnits="userSpaceOnUse" gradientTransform="matrix(0 51.6037 -14.0949 0 85.7 440)"><stop stop-color="#fff" stop-opacity="0"/><stop offset="1" stop-color="#fff"/></radialGradient><radialGradient id="paint9_radial" cx="0" cy="0" r="1" gradientUnits="userSpaceOnUse" gradientTransform="matrix(0 41.2527 -8.35813 0 96.5 449.8)"><stop stop-color="#fff" stop-opacity="0"/><stop offset="1" stop-color="#fff"/></radialGradient><radialGradient id="paint10_radial" cx="0" cy="0" r="1" gradientUnits="userSpaceOnUse" gradientTransform="matrix(0 24.5092 -20.0964 0 83.4 467.2)"><stop stop-color="#fff" stop-opacity="0"/><stop offset="1" stop-color="#fff"/></radialGradient><radialGradient id="paint11_radial" cx="0" cy="0" r="1" gradientUnits="userSpaceOnUse" gradientTransform="matrix(0 8.80174 -8.45672 0 99.8 482.5)"><stop stop-color="#fff" stop-opacity="0"/><stop offset="1" stop-color="#fff"/></radialGradient><linearGradient id="paint0_linear" x1="7.1" y1="148" x2="7.1" y2="449" gradientUnits="userSpaceOnUse"><stop stop-color="#fff" stop-opacity="0"/><stop offset="1" stop-color="#fff"/></linearGradient><linearGradient id="paint1_linear" x1="13.4" y1="89.4" x2="13.4" y2="216.4" gradientUnits="userSpaceOnUse"><stop stop-color="#fff" stop-opacity="0"/><stop offset="1" stop-color="#fff"/></linearGradient><linearGradient id="paint6_linear" x1="1" y1="485.6" x2="1" y2="527.8" gradientUnits="userSpaceOnUse"><stop stop-color="#fff" stop-opacity="0"/><stop offset="1" stop-color="#fff"/></linearGradient><linearGradient id="paint7_linear" x1="1" y1="471.6" x2="1" y2="506.6" gradientUnits="userSpaceOnUse"><stop stop-color="#fff" stop-opacity="0"/><stop offset="1" stop-color="#fff"/></linearGradient><linearGradient id="paint12_linear" x1="154.1" y1="437" x2="154.1" y2="492.9" gradientUnits="userSpaceOnUse"><stop stop-color="#fff" stop-opacity="0"/><stop offset="1" stop-color="#fff"/></linearGradient><linearGradient id="paint13_linear" x1="540.9" y1="188" x2="550.6" y2="146.3" gradientUnits="userSpaceOnUse"><stop stop-color="gray" stop-opacity=".3"/><stop offset=".5" stop-color="gray" stop-opacity=".1"/><stop offset="1" stop-color="gray" stop-opacity=".1"/></linearGradient></defs><script xmlns="" src="chrome-extension://kfidecgcdjjfpeckbblhmfkhmlgecoff/sensor.js"/></svg>