<svg width="119" height="124" viewBox="0 0 119 124" fill="none" xmlns="http://www.w3.org/2000/svg">
<rect x="22.8701" y="0.491699" width="3.36241" height="124.348" rx="1" transform="rotate(-8.41044 22.8701 0.491699)" fill="#030D54"/>
<path d="M0 8.61913L53.0917 0.727539L64.0307 73.4671L10.939 81.3587L0 8.61913Z" fill="#2CCBBB"/>
<path d="M0 8.61913L53.0917 0.727539L64.0307 73.4671L10.939 81.3587L0 8.61913Z" fill="url(#paint0_radial)" fill-opacity="0.5"/>
<path fill-rule="evenodd" clip-rule="evenodd" d="M0 8.61913L53.0917 0.727539L64.0307 73.4671L10.939 81.3587L0 8.61913ZM14.0102 77.2318L59.8796 70.4138L50.0204 4.85444L4.15105 11.6725L14.0102 77.2318Z" fill="#030D54"/>
<path d="M17.7393 22.3505L18.76 28.5688C18.9359 29.6409 18.7076 30.4858 17.5926 30.6688C16.692 30.8167 16.0407 30.3364 15.9234 29.6216C15.8647 29.2643 15.8822 28.9237 16.1333 28.4862L13.9554 28.0069C13.6994 28.504 13.5903 29.2706 13.7006 29.9424C14.0174 31.8723 15.5742 33.1288 18.0043 32.7299C20.8347 32.2653 21.3756 30.1947 21.0941 28.4793L20.0265 21.9751L17.7393 22.3505Z" fill="#030D54"/>
<path d="M26.5829 31.3218C28.6557 30.9815 29.9459 29.2724 29.6057 27.1996C29.2655 25.1269 27.4966 23.9199 25.4238 24.2601C23.3511 24.6003 22.0608 26.3095 22.4011 28.3822C22.7413 30.455 24.5102 31.662 26.5829 31.3218ZM26.2662 29.392C25.4085 29.5327 24.6381 29.0426 24.4738 28.042C24.3096 27.0413 24.8829 26.3307 25.7406 26.1899C26.5983 26.0491 27.3687 26.5392 27.5329 27.5399C27.6972 28.5405 27.1239 29.2512 26.2662 29.392Z" fill="#030D54"/>
<path d="M30.1267 22.7395L32.4139 22.364L32.0502 20.1483L29.763 20.5238L30.1267 22.7395ZM30.3413 23.5997L31.4535 30.3755L33.5977 30.0236L32.4855 23.2478L30.3413 23.5997Z" fill="#030D54"/>
<path d="M37.3948 29.4003L36.7847 25.6836C36.6205 24.683 37.0387 24.1005 37.7534 23.9832C38.4682 23.8659 38.9791 24.2958 39.1082 25.082L39.7535 29.0131L41.8977 28.6612L41.1703 24.2298C40.9099 22.643 39.7757 21.9043 38.2604 22.1531C37.4599 22.2845 36.742 22.7399 36.414 23.425L36.2826 22.6245L34.1384 22.9765L35.2506 29.7523L37.3948 29.4003Z" fill="#030D54"/>
<path d="M20.3078 47.0318C21.9088 46.769 22.6925 45.7302 22.6962 44.2323L20.6981 44.2226C20.7184 44.7037 20.5343 45.0128 20.134 45.0785C19.7052 45.1489 19.4199 44.9315 19.3448 44.4741L18.9248 41.9153L21.4264 41.5047L21.1449 39.7893L18.6433 40.1999L18.2655 37.8984L16.1212 38.2504L16.499 40.5519L15.0695 40.7865L15.3511 42.5019L16.7806 42.2672L17.2123 44.8975C17.4704 46.47 18.5638 47.3181 20.3078 47.0318Z" fill="#030D54"/>
<path d="M26.228 45.9133L25.6649 42.4825C25.4889 41.4104 25.9575 40.6875 26.7437 40.5585C27.5299 40.4294 28.0503 40.9166 28.1793 41.7028L28.8011 45.4909L30.9453 45.139L30.2532 40.922C29.9857 39.2923 28.8805 38.3727 27.2366 38.6426C26.4504 38.7716 25.649 39.2555 25.2895 40.1953L24.5855 35.9068L22.4413 36.2588L24.0838 46.2652L26.228 45.9133Z" fill="#030D54"/>
<path d="M35.6365 42.622C34.7788 42.7628 34.0797 42.3491 33.8909 41.6461L38.3223 40.9187C38.3302 40.6091 38.3095 40.3042 38.2649 40.0326C37.9576 38.16 36.5241 37.1181 34.5371 37.4443C32.4786 37.7821 31.3477 39.5679 31.6645 41.4977C32.0165 43.6419 33.8235 44.8133 35.9106 44.4708C37.5402 44.2033 38.5072 43.2078 38.7532 41.9343L36.8205 41.5175C36.7167 42.0483 36.4227 42.493 35.6365 42.622ZM34.8116 39.1168C35.5549 38.9948 36.0328 39.3127 36.115 39.813L33.6562 40.2166C33.7721 39.581 34.297 39.2012 34.8116 39.1168Z" fill="#030D54"/>
<path d="M21.3013 61.402L20.7382 57.9712C20.5622 56.8991 21.0308 56.1763 21.817 56.0472C22.6032 55.9182 23.1236 56.4053 23.2526 57.1915L23.8744 60.9796L26.0186 60.6277L25.3264 56.4107C25.059 54.7811 23.9538 53.8615 22.3099 54.1313C21.5237 54.2604 20.7223 54.7442 20.3628 55.684L19.6588 51.3956L17.5146 51.7475L19.1571 61.754L21.3013 61.402Z" fill="#030D54"/>
<path d="M30.7098 58.1107C29.8521 58.2515 29.153 57.8378 28.9642 57.1348L33.3956 56.4074C33.4035 56.0978 33.3828 55.793 33.3382 55.5213C33.0308 53.6487 31.5973 52.6068 29.6104 52.933C27.5519 53.2709 26.421 55.0566 26.7378 56.9864C27.0898 59.1307 28.8968 60.3021 30.9839 59.9595C32.6135 59.692 33.5805 58.6965 33.8265 57.423L31.8937 57.0062C31.79 57.5371 31.496 57.9817 30.7098 58.1107ZM29.8849 54.6055C30.6282 54.4835 31.1061 54.8014 31.1882 55.3017L28.7295 55.7053C28.8454 55.0697 29.3703 54.69 29.8849 54.6055Z" fill="#030D54"/>
<path d="M34.2244 52.3224L35.3366 59.0982L37.4808 58.7463L36.7886 54.5293C36.683 53.886 36.9389 53.477 37.4392 53.3949C37.9109 53.3175 38.2245 53.6183 38.2926 54.0328C38.316 54.1758 38.3276 54.3354 38.2962 54.502L40.2689 54.1782C40.2958 53.8949 40.2917 53.6019 40.2472 53.3303C40.0524 52.1439 39.3328 51.3371 37.9748 51.56C37.16 51.6938 36.6848 52.1975 36.4953 52.7424L36.3686 51.9705L34.2244 52.3224Z" fill="#030D54"/>
<path d="M45.2857 57.612C46.2006 57.4618 46.871 56.9848 47.206 56.3426L47.335 57.1288L49.4078 56.7886L47.7653 46.7821L45.6211 47.1341L46.2898 51.2081C45.7671 50.7067 44.9414 50.4165 44.0551 50.562C42.2683 50.8553 40.9879 52.4454 41.3516 54.6611C41.7152 56.8768 43.3988 57.9217 45.2857 57.612ZM45.4213 55.7547C44.5636 55.8955 43.6835 55.4527 43.4958 54.3091C43.2964 53.0941 43.9911 52.4075 44.8488 52.2667C45.7065 52.126 46.5842 52.5544 46.7836 53.7695C46.9713 54.9131 46.279 55.6139 45.4213 55.7547Z" fill="#030D54"/>
<path fill-rule="evenodd" clip-rule="evenodd" d="M74.7844 32.2402C74.8365 30.9912 75.2546 29.7671 75.9618 28.7923C76.7153 27.7543 78.9291 26.4268 80.654 26.2725C81.0775 26.2308 81.4711 26.4111 81.6817 26.7431C81.9263 27.1283 81.8915 27.6433 81.584 28.1582L77.0449 35.1172C76.8968 35.3442 76.669 35.502 76.4044 35.5601C76.4013 35.5609 76.3979 35.5617 76.3948 35.5621C75.951 35.6555 75.5058 35.4533 75.2848 35.0567C74.9249 34.41 74.7377 33.357 74.7844 32.2402Z" fill="#030D54"/>
<path fill-rule="evenodd" clip-rule="evenodd" d="M69.9751 43.1239C69.9751 43.1239 71.2497 46.5308 78.3721 47.0346C80.4577 47.1824 83.8558 46.2474 85.1905 44.7906C85.6327 44.3077 85.5324 43.2533 85.1009 42.5461C84.8739 42.1735 85.4398 41.0881 84.6598 40.5785C82.1822 38.96 77.5765 36.4805 74.2052 36.8296" fill="#030D54"/>
<path fill-rule="evenodd" clip-rule="evenodd" d="M100.843 113.42V118.489C100.843 119.363 100.561 119.437 99.9812 119.736C99.0293 120.226 98.2551 120.77 98.2551 121.818C98.2551 122.478 98.8398 123.082 99.5531 123.183C99.9222 123.235 101.947 123.181 102.491 123.181C103.785 123.181 104.333 122.287 104.333 120.986V113.42H100.843Z" fill="#030D54"/>
<path fill-rule="evenodd" clip-rule="evenodd" d="M77.3867 113.433C77.3867 113.433 79.7215 117.649 80.1576 118.509C80.5934 119.37 79.8774 119.461 79.2958 119.756C78.749 120.034 77.7313 120.513 77.5701 121.723C77.4652 122.506 78.0219 123.205 78.7391 123.205C79.8019 123.205 80.7917 123.166 81.8167 123.166C82.8746 123.166 84.3537 122.219 84.3537 121.006C84.354 120.239 83.7602 119.172 83.3643 118.182C82.9684 117.193 81.273 113.433 81.273 113.433H77.3867Z" fill="#030D54"/>
<path fill-rule="evenodd" clip-rule="evenodd" d="M118.524 86.1257C118.968 84.9077 113.536 85.3381 111.601 87.7751C107.451 93 107.874 112.817 108.339 111.947C108.34 111.976 108.342 112.004 108.343 112.032C108.344 112.047 108.345 112.062 108.346 112.078C108.348 112.115 108.351 112.152 108.354 112.189C108.358 112.23 108.362 112.27 108.367 112.31C108.368 112.32 108.369 112.33 108.371 112.34C108.541 113.693 109.414 114.827 110.613 115.365V118.489C110.613 119.363 110.331 119.437 109.752 119.736C108.8 120.226 108.026 120.77 108.026 121.818C108.026 122.478 108.61 123.082 109.324 123.183C109.693 123.235 111.717 123.181 112.261 123.181C113.555 123.181 114.104 122.287 114.104 120.986V115.188C115.235 114.536 116.003 113.325 116.03 111.932C116.031 111.914 116.032 111.897 116.032 111.88C116.032 111.875 116.032 111.869 116.032 111.864C116.032 111.861 116.032 111.858 116.032 111.854C116.032 111.842 116.031 111.83 116.031 111.818C116.029 111.29 115.921 110.787 115.727 110.33C115.545 109.904 115.59 109.415 115.82 109.013C116.046 108.62 116.285 108.206 116.299 107.58C116.33 106.144 115.431 105.451 115.431 104.591C115.431 103.185 116.319 102.979 116.545 101.336C116.686 100.314 116.502 99.617 116.021 98.3312C115.629 97.2848 116.303 96.748 116.602 95.8502C116.893 94.9779 116.609 93.817 116.283 92.9801C117.115 92.1025 119.599 89.3848 118.524 86.1257Z" fill="#030D54"/>
<path fill-rule="evenodd" clip-rule="evenodd" d="M76.3806 91.0471C77.6939 90.7898 73.4008 85.527 70.0132 84.9798C62.7507 83.8068 46.9391 95.7651 47.9842 95.7308C47.9617 95.7481 47.9406 95.7666 47.919 95.7845C47.9071 95.7942 47.8952 95.8038 47.8833 95.8135C47.8547 95.8375 47.8264 95.8624 47.7984 95.8871C47.7685 95.9144 47.7386 95.9417 47.7098 95.9699C47.7023 95.9771 47.695 95.984 47.6877 95.9916C46.7108 96.9517 46.4227 98.4971 46.8557 100.027L44.3144 101.845C43.6038 102.353 43.3388 102.11 42.6747 101.696C41.5848 101.015 40.5808 100.545 39.7281 101.155C39.1912 101.539 39.1246 102.484 39.5602 103.267C39.7858 103.672 41.2995 105.695 41.6945 106.247C42.634 107.56 43.7589 107.597 44.8171 106.84L49.5331 103.467C50.8848 104.236 52.4272 104.311 53.5805 103.529C53.5951 103.519 53.6099 103.51 53.6242 103.501C53.6286 103.498 53.6327 103.494 53.637 103.491C53.6395 103.489 53.6423 103.488 53.6451 103.486C53.655 103.479 53.6639 103.471 53.6738 103.464C54.1013 103.154 54.4324 102.752 54.6628 102.289C54.8776 101.857 55.3082 101.618 55.8019 101.618C56.2849 101.618 56.7961 101.62 57.3153 101.27C58.506 100.466 58.4162 99.1502 59.1162 98.6494C60.2598 97.8316 61.0713 98.6134 62.5725 97.8875C63.5061 97.4354 63.9392 96.8431 64.6358 95.607C65.2029 94.6011 66.1284 94.9724 67.0761 94.754C67.9968 94.542 68.7351 93.5787 69.179 92.7607C70.4963 93.0939 74.5104 94.0347 76.3806 91.0471Z" fill="#030D54"/>
<path fill-rule="evenodd" clip-rule="evenodd" d="M76.6195 113.92C76.4567 112.454 76.2894 112.317 75.2013 111.423L75.1576 111.387C74.5102 110.856 73.3052 109.868 73.6605 107.89C73.687 107.744 73.6896 107.729 73.3512 107.422C72.9553 107.062 72.2925 106.46 72.4238 105.373C72.433 105.299 72.433 105.249 72.4311 105.218C72.3346 105.164 72.1225 105.093 71.9751 105.044C71.2878 104.815 70.0082 104.388 69.7046 102.72C69.4706 101.435 68.8955 101.044 68.1677 100.55C67.431 100.05 66.4217 99.3647 66.4217 97.7167C66.4217 97.528 66.4332 97.3519 66.4451 97.1845C66.4616 96.951 66.4681 96.8185 66.4489 96.7519C66.4428 96.7496 66.4367 96.7477 66.4309 96.7454C65.7812 96.5015 65.2961 96.078 65.0414 94.8038C64.7485 93.3396 64.273 92.8384 63.5532 92.0795C63.0677 91.568 62.5179 90.9883 61.9573 90.0537C61.0411 88.5256 61.2176 85.9312 61.2934 85.1723C61.3983 84.1244 61.3704 84.1052 60.6498 83.6255C59.8603 83.099 59.1577 81.7532 59.7756 79.6936C59.9912 78.9746 59.9162 78.8237 59.7795 78.5496C59.3307 77.6498 59.2434 76.8216 60.0238 74.9589C59.6397 73.8639 58.6703 70.7606 59.008 68.1593C59.15 67.065 59.5647 66.2885 59.9659 65.5377C60.6436 64.268 61.3447 62.9551 60.984 59.4881C60.7489 57.2283 62.4681 54.8215 63.294 53.6648C63.3545 53.5802 63.2312 53.2444 63.1224 52.9481C62.9168 52.3864 62.6346 51.6168 62.8536 50.7408C63.0068 50.1266 63.3043 49.7636 63.5218 49.4983C63.7718 49.1931 63.9694 48.9519 64.075 48.0663C64.8178 41.8322 66.8023 38.186 67.6209 36.9076C68.2098 35.9886 69.1961 35.19 70.0921 34.6639C68.9304 32.7786 68.4143 29.9142 69.0648 28.9386C69.3029 28.581 69.6724 28.3742 70.0798 28.3696C70.2712 27.641 70.6266 26.7876 71.274 25.9242C71.4494 25.6906 71.982 24.98 72.7967 24.98C73.5951 24.98 74.1495 25.5673 74.4447 26.7252C75.0669 29.1645 75.1078 30.7037 75.1607 32.653C75.171 33.047 75.1821 33.4494 75.1982 33.8782C76.5241 34.0934 77.8516 34.7228 78.7046 35.577C79.2625 36.1361 79.5569 36.7517 79.5554 37.3578C79.5543 37.9295 79.1316 38.5084 78.3256 38.5084C77.9377 38.5084 77.492 38.3755 76.9273 38.2071C76.7673 38.1596 76.5854 38.1052 76.4047 38.0558C76.5896 38.495 76.6926 39.0666 76.281 39.6153C76.0838 39.878 75.6948 40.1912 74.9589 40.1912C74.8345 40.1912 74.705 40.1828 74.5729 40.1682C74.6959 40.37 74.772 40.602 74.772 40.875C74.772 41.4275 74.4983 41.8173 74.1606 42.1025C74.7498 42.2124 75.3942 42.508 75.3942 43.3641C75.3942 44.0112 74.97 44.4144 74.5082 44.7061C74.9018 44.7747 75.3372 44.888 75.7691 45.104C76.361 45.4003 76.7443 45.985 76.7692 46.6305C76.7944 47.2948 76.446 47.9097 75.8368 48.275C75.5363 48.4557 75.4861 48.5599 75.485 48.5622C75.4854 48.5622 75.4766 48.6238 75.5332 48.7831C75.6921 49.2322 75.825 49.5557 75.9532 49.8686C76.1018 50.2308 76.2557 50.606 76.4315 51.1328C76.7156 51.9851 76.5142 52.5258 76.2955 52.8294C76.2006 52.9607 76.0857 53.0718 75.9555 53.1598C77.0556 54.4957 76.6325 55.4793 76.281 55.948C75.861 56.5081 75.861 56.6062 75.861 56.7413C75.861 57.1996 76.1768 57.7694 76.5111 58.3724C77.1184 59.4674 77.8742 60.8301 77.1773 62.4329C76.1232 64.8569 75.7293 66.4133 76.6608 67.6945C77.3266 68.6099 77.7941 68.6762 78.4853 68.6762C78.7372 68.6762 79.006 68.6612 79.2966 68.6459C79.6672 68.6264 80.0876 68.6042 80.5563 68.6042C81.0134 68.6042 81.4469 68.6249 81.881 68.6685C82.8647 68.7669 84.0635 69.2746 85.2225 69.7659C86.244 70.1985 87.4018 70.689 87.9938 70.6886C88.0642 70.6886 88.0933 70.6806 88.0937 70.6806C88.8043 70.2701 89.5594 70.0637 90.3722 70.0637C91.1016 70.0637 91.7468 70.2349 92.2652 70.3723C92.6033 70.4619 92.9223 70.5466 93.1332 70.5466C93.2255 70.5466 93.2573 70.5297 93.2676 70.524C94.1651 70.0458 94.9933 69.8133 95.7996 69.8133C96.7947 69.8133 97.5655 70.1732 98.1846 70.4627C98.6617 70.6852 99.0384 70.8609 99.4251 70.8609C99.5075 70.8609 99.589 70.8533 99.674 70.8376C100.03 70.7713 100.388 70.738 100.737 70.738C102.218 70.738 103.633 71.3445 104.828 72.4924C105.005 72.6616 105.074 72.6616 105.148 72.6616C105.252 72.6616 105.397 72.6394 105.565 72.6138C105.823 72.5739 106.145 72.5245 106.528 72.5245C106.835 72.5245 107.134 72.5559 107.441 72.6203C109.069 72.961 109.649 74.0132 110.032 74.7089C110.348 75.2828 110.446 75.4111 110.767 75.4674L111.029 75.5133C113.153 75.8832 113.54 76.0712 114.165 77.8325L114.211 77.9622C114.283 78.1663 114.461 78.2892 114.878 78.5408C115.45 78.8854 116.315 79.4061 116.485 80.6336C116.552 81.1092 116.708 81.2627 116.992 81.5414C117.326 81.8684 117.783 82.316 117.915 83.1721C118.11 84.4246 117.876 85.0674 117.705 85.5368C117.584 85.8707 117.543 85.9829 117.705 86.4718C118.258 88.1366 117.539 89.9431 117.061 90.8716C116.447 92.0639 115.297 93.59 114.074 93.9679C112.335 94.5055 112.014 95.5565 112.083 95.7908C112.825 97.6455 112.241 99.4795 110.296 101.393C109.788 101.893 109.801 102.311 109.871 103.067C109.917 103.551 109.967 104.099 109.742 104.639C109.4 105.46 108.685 105.77 108.211 105.975C107.707 106.193 107.705 106.213 107.692 106.41C107.672 106.692 107.727 107.113 107.787 107.56C107.962 108.881 108.226 110.879 106.543 111.926C105.842 112.362 105.818 112.501 105.731 113.018C105.662 113.427 105.567 113.987 105.195 114.703C104.698 115.656 103.722 116.248 102.647 116.248C101.703 116.248 100.819 115.792 100.223 114.997C99.5442 114.093 99.509 113.201 99.4833 112.55C99.4558 111.849 99.4255 111.769 99.1254 111.595C97.5984 110.712 97.6555 108.668 97.7102 106.692C97.7435 105.495 97.7849 104.005 97.348 103.552C96.3816 102.548 96.2851 100.931 96.1917 99.3674C96.1136 98.0541 96.0248 96.5658 95.3654 96.3832C95.2341 96.3468 95.1093 96.3292 94.9845 96.3292C94.2015 96.3292 93.4644 97.0743 92.8147 97.7313C92.1841 98.3684 91.5883 98.9707 90.798 98.9707C90.504 98.9707 89.9442 98.8761 89.4989 98.2413C89.3511 98.0303 89.2531 97.9518 89.2148 97.9262C89.0498 97.9671 88.6477 98.27 88.3782 98.4737C87.9099 98.8267 87.38 99.2268 86.7176 99.5082C86.3826 99.6507 86.0273 99.7231 85.6628 99.7231C84.7967 99.7231 84.1025 99.3206 83.7296 99.1043L83.6875 99.0802C83.1606 98.7762 82.9313 98.7762 82.8555 98.7762C82.7249 98.7762 82.5848 98.8137 82.3907 98.8658C82.1919 98.919 81.9595 98.9818 81.6812 99.0159C81.9377 99.6032 82.1119 100.307 81.9917 101.267C81.9006 102.001 81.6035 102.471 81.3867 102.814C81.2106 103.094 81.1497 103.19 81.1677 103.382C81.2332 103.43 81.3285 103.493 81.399 103.539C81.8856 103.858 82.7915 104.452 82.7915 105.694C82.7915 106.41 82.4136 106.94 82.11 107.366C81.9994 107.521 81.814 107.781 81.8018 107.875C81.8018 107.964 81.9588 108.197 82.0729 108.367C82.4098 108.866 83.1101 109.905 82.1743 111.075C82.1563 111.208 82.3769 111.687 82.5086 111.973C82.576 112.119 82.6449 112.269 82.7096 112.42C83.1691 113.492 83.1756 114.52 82.7284 115.316C82.3386 116.01 81.631 116.462 80.7358 116.59C80.3763 116.642 80.0562 116.666 79.758 116.666C77.9573 116.666 76.8136 115.665 76.6195 113.92Z" fill="#FCFC51"/>
<path fill-rule="evenodd" clip-rule="evenodd" d="M72.7969 23.9688C71.9209 23.9688 71.1367 24.4225 70.4655 25.3173C69.8973 26.0746 69.5252 26.8258 69.2832 27.5139C68.8605 27.682 68.4887 27.9798 68.2238 28.378C67.6529 29.2338 67.6108 30.6152 68.0982 32.4833C68.2226 32.9615 68.4313 33.63 68.7567 34.3273C68.0097 34.8702 67.283 35.5613 66.77 36.3623C65.9134 37.699 63.839 41.504 63.0713 47.9468C63.0005 48.5392 62.9243 48.6326 62.7397 48.8573C62.4935 49.1583 62.0815 49.6614 61.8729 50.4953C61.5784 51.6731 61.9364 52.6498 62.1734 53.2961C62.1888 53.3371 62.2052 53.383 62.2217 53.4286C61.2691 54.7828 59.7276 57.1778 59.9784 59.5926C60.3073 62.7518 59.7084 63.8736 59.074 65.061C58.6509 65.8535 58.1712 66.7514 58.0058 68.0291C57.6703 70.6116 58.4794 73.5334 58.9453 74.934C58.1911 76.8993 58.3481 77.9438 58.8749 79.0002C58.881 79.0132 58.8875 79.0255 58.894 79.0385C58.8852 79.1024 58.8626 79.2185 58.8075 79.403C58.031 81.9917 59.0127 83.7484 60.0894 84.4663C60.1882 84.5321 60.2613 84.5827 60.3157 84.6217C60.3153 84.7174 60.3088 84.8614 60.2877 85.0712C60.1801 86.1441 60.0435 88.8277 61.0903 90.5733C61.7079 91.6032 62.3243 92.253 62.8197 92.7752C63.5028 93.495 63.8145 93.8239 64.0503 95.0021C64.2801 96.1507 64.7032 96.8935 65.4207 97.3645C65.4149 97.4721 65.4107 97.59 65.4107 97.7167C65.4107 99.8995 66.7814 100.83 67.6 101.386C68.2536 101.83 68.5519 102.033 68.71 102.901C69.081 104.94 70.5662 105.62 71.409 105.919C71.5108 107.056 72.2215 107.757 72.6089 108.113C72.3765 110.413 73.8621 111.632 74.5168 112.169L74.5597 112.203C75.4974 112.974 75.4974 112.974 75.6149 114.031C75.8684 116.315 77.4172 117.677 79.7577 117.677C80.1046 117.677 80.4714 117.649 80.8792 117.591C82.0926 117.417 83.0628 116.785 83.6099 115.811C84.2149 114.735 84.2252 113.389 83.6394 112.022C83.5709 111.862 83.4981 111.704 83.4269 111.549C83.384 111.456 83.3312 111.341 83.2849 111.234C83.8569 110.22 83.7531 109.099 82.974 107.896C83.3017 107.434 83.8029 106.692 83.8029 105.694C83.8029 104.324 83.0421 103.505 82.4375 103.033C82.6562 102.652 82.9051 102.116 82.9954 101.392C83.0685 100.809 83.0502 100.299 82.977 99.8471C83.031 99.8723 83.0988 99.9072 83.1826 99.9554L83.2221 99.9784C83.6448 100.223 84.5246 100.734 85.663 100.734C86.1645 100.734 86.6523 100.634 87.1133 100.439C87.8898 100.109 88.4982 99.6495 88.9872 99.2804C89.0013 99.2697 89.0159 99.259 89.0304 99.2479C89.6691 99.8758 90.3874 99.9815 90.7986 99.9815C92.0108 99.9815 92.8194 99.1636 93.5335 98.4423C93.9225 98.0487 94.5616 97.4027 94.9326 97.3442C95.0846 97.7849 95.1451 98.7941 95.1826 99.4274C95.281 101.074 95.392 102.937 96.5782 104.209C96.757 104.6 96.7214 105.887 96.6996 106.664C96.6441 108.669 96.5751 111.152 98.4639 112.375C98.4677 112.446 98.4708 112.524 98.4735 112.59C98.5007 113.285 98.5466 114.447 99.4142 115.604C100.203 116.656 101.381 117.259 102.647 117.259C104.1 117.259 105.42 116.458 106.092 115.169C106.538 114.313 106.653 113.635 106.728 113.186C106.738 113.13 106.749 113.062 106.759 113.009C106.811 112.965 106.908 112.89 107.078 112.784C109.314 111.393 108.973 108.813 108.789 107.427C108.765 107.244 108.737 107.036 108.719 106.856C109.283 106.609 110.207 106.152 110.676 105.028C110.998 104.256 110.929 103.514 110.878 102.973C110.815 102.301 110.837 102.279 111.005 102.114C113.144 100.01 113.857 97.8549 113.129 95.7039C113.247 95.5167 113.597 95.1736 114.373 94.9339C115.894 94.4637 117.223 92.7664 117.96 91.334C118.911 89.487 119.161 87.6469 118.665 86.1529C118.64 86.0767 118.625 86.0227 118.618 85.9878C118.629 85.9549 118.644 85.9155 118.656 85.8825C118.895 85.2263 119.131 84.4096 118.915 83.0167C118.731 81.829 118.06 81.1719 117.7 80.8189C117.631 80.7515 117.537 80.6593 117.515 80.6263C117.515 80.6263 117.5 80.588 117.487 80.4942C117.25 78.7889 116.047 78.0641 115.4 77.6747C115.309 77.6199 115.194 77.5502 115.119 77.4993L115.118 77.494C114.335 75.2882 113.633 74.9405 111.203 74.517L111.073 74.4941C111.024 74.414 110.965 74.3076 110.918 74.2211C110.503 73.4679 109.731 72.0662 107.649 71.6305C107.273 71.5516 106.906 71.5133 106.528 71.5133C106.068 71.5133 105.689 71.5719 105.412 71.614C105.4 71.6159 105.388 71.6178 105.376 71.6198C104.021 70.3804 102.421 69.7268 100.737 69.7268C100.327 69.7268 99.907 69.7658 99.4896 69.8432C99.4663 69.8478 99.4452 69.8497 99.4253 69.8497C99.2634 69.8497 98.9471 69.7023 98.6125 69.5461C97.9401 69.2321 97.0193 68.8025 95.8002 68.8021C94.8931 68.8021 93.98 69.0364 93.0151 69.5166C92.8807 69.4894 92.6816 69.4366 92.5246 69.3948C91.9495 69.2424 91.2335 69.0529 90.3728 69.0529C89.4987 69.0525 88.6517 69.257 87.8511 69.6609C87.3507 69.569 86.2825 69.1165 85.6174 68.8347C84.3887 68.3143 83.1183 67.776 81.9819 67.6623C81.514 67.6156 81.0477 67.593 80.5564 67.593C80.0606 67.593 79.626 67.6159 79.2432 67.6362C78.9522 67.6516 78.7006 67.6649 78.4854 67.6649C78.0041 67.6649 77.8897 67.665 77.4788 67.0998C76.9045 66.3095 77.0622 65.234 78.1045 62.836C79.0004 60.7761 78.0348 59.0344 77.3957 57.8819C77.2257 57.5748 76.9558 57.0882 76.8884 56.8366C76.9279 56.7773 76.9906 56.6873 77.0902 56.5544C77.4627 56.0578 78.1316 54.8299 77.2353 53.2371C77.5041 52.7777 77.7744 51.964 77.3908 50.8127C77.2043 50.2533 77.0439 49.8624 76.8888 49.4841C76.8145 49.303 76.7425 49.128 76.6663 48.9312C77.4042 48.3603 77.8146 47.5088 77.7798 46.5914C77.7411 45.5887 77.1568 44.6812 76.2521 44.2152C76.3486 43.966 76.4056 43.6838 76.4056 43.3637C76.4056 42.8193 76.1935 42.1634 75.6529 41.6882C75.7145 41.5075 75.757 41.3111 75.7746 41.0982C76.4749 40.9071 76.885 40.4952 77.0902 40.2218C77.2931 39.9511 77.4218 39.6788 77.4961 39.4127C77.7798 39.4778 78.0528 39.5192 78.3258 39.5192C79.5801 39.5192 80.5645 38.5708 80.5668 37.3597C80.5679 36.746 80.37 35.8144 79.4204 34.8626C78.606 34.0466 77.4264 33.4068 76.1835 33.0638C76.1793 32.916 76.1755 32.7701 76.1713 32.6254C76.1196 30.693 76.0744 29.024 75.4247 26.4751C74.8687 24.295 73.5401 23.9688 72.7973 23.9688H72.7969ZM72.7979 25.991C73.0675 25.991 73.2934 26.2973 73.4661 26.9746C74.2613 30.0928 74.0634 31.676 74.2292 34.8084C76.2898 34.8084 78.5481 36.2209 78.5458 37.3553C78.5454 37.4568 78.4646 37.497 78.3268 37.497C77.7904 37.497 76.3936 36.8836 75.5785 36.8836C75.3028 36.8836 75.0937 36.9537 75.0068 37.1417C74.7484 37.7007 75.8583 38.4952 75.4735 39.0083C75.3797 39.1335 75.1959 39.1798 74.9601 39.1798C74.2832 39.1798 73.1774 38.7973 72.5349 38.7973C72.2895 38.7973 72.1114 38.8532 72.0513 39.0083C71.7642 39.7507 73.7624 40.2526 73.7624 40.8748C73.7624 41.6226 72.0513 41.8083 72.0513 42.4305C72.0513 43.4141 74.3846 42.7414 74.3846 43.3636C74.3846 43.9857 72.3657 44.312 72.5181 45.0747C72.6735 45.8523 74.0737 45.3859 75.3181 46.0081C75.8656 46.2819 75.9487 47.0293 75.3181 47.408C74.5401 47.8747 74.3168 48.3736 74.5814 49.1202C74.9371 50.1253 75.1623 50.5189 75.4735 51.4524C75.6933 52.1121 75.4735 52.3854 75.1623 52.3854C74.5209 52.3854 74.3846 52.8522 75.1623 53.7856C75.6627 54.386 75.8101 54.8926 75.4735 55.3413C75.0068 55.9635 74.8514 56.2744 74.8514 56.7411C74.8514 58.4802 77.1008 60.0753 76.2512 62.0299C75.2507 64.331 74.5248 66.4744 75.8446 68.2889C76.7037 69.4705 77.4714 69.6868 78.4865 69.6868C79.0726 69.6868 79.7408 69.6148 80.5571 69.6148C80.9319 69.6148 81.3382 69.6297 81.7815 69.6745C83.5099 69.8472 86.4589 71.6996 87.9954 71.6996C88.2186 71.6996 88.4123 71.6606 88.5682 71.5713C89.2187 71.1984 89.8194 71.0747 90.3735 71.0747C91.4677 71.0747 92.3798 71.5572 93.1344 71.5572C93.3504 71.5572 93.5533 71.5177 93.7444 71.4159C94.5611 70.9809 95.2269 70.824 95.8008 70.824C97.2845 70.8243 98.1556 71.8719 99.4263 71.8719C99.5657 71.8719 99.7097 71.8593 99.8598 71.8313C100.166 71.7747 100.459 71.7486 100.738 71.7486C102.25 71.7486 103.382 72.5037 104.13 73.2212C104.499 73.5761 104.816 73.6726 105.149 73.6726C105.546 73.6726 105.967 73.5355 106.529 73.5355C106.742 73.5355 106.975 73.5551 107.235 73.6094C109.461 74.0754 108.841 76.1556 110.594 76.4631C112.806 76.8513 112.716 76.7736 113.259 78.3005C113.693 79.5196 115.291 79.3749 115.485 80.7724C115.696 82.2898 116.741 82.1914 116.918 83.3266C117.232 85.3536 116.21 85.1721 116.747 86.7898C117.505 89.0726 115.164 92.5729 113.777 93.0013C111.427 93.7277 110.832 95.3833 111.144 96.1609C111.758 97.6963 111.15 99.1355 109.588 100.672C108.235 102.003 109.173 103.381 108.81 104.25C108.384 105.272 106.788 104.872 106.684 106.338C106.589 107.685 107.591 110.084 106.01 111.067C104.278 112.145 105.103 112.692 104.299 114.235C103.963 114.881 103.318 115.237 102.648 115.237C102.067 115.237 101.467 114.969 101.033 114.39C99.9586 112.958 101.12 111.58 99.6327 110.72C97.7191 109.613 99.6182 104.449 98.0775 102.85C96.4774 101.189 98.0667 96.0816 95.6366 95.4081C95.4111 95.3457 95.1943 95.3178 94.9857 95.3178C92.9694 95.3178 91.7143 97.9593 90.7996 97.9593C90.6319 97.9593 90.4753 97.8705 90.3279 97.6603C89.9458 97.1158 89.592 96.911 89.2371 96.911C88.3989 96.911 87.555 98.0539 86.3233 98.5773C86.0978 98.673 85.8761 98.7113 85.664 98.7113C85.0414 98.7113 84.5012 98.3812 84.1941 98.204C83.6117 97.8678 83.202 97.7644 82.8567 97.7644C82.3034 97.7644 81.9171 98.0309 81.2551 98.0309C80.899 98.0309 80.4629 97.9536 79.8782 97.7165C80.3963 98.9647 81.1881 99.5582 80.9901 101.141C80.8431 102.317 79.9544 102.494 80.1983 103.714C80.335 104.396 81.7815 104.506 81.7815 105.694C81.7815 106.48 80.7922 107.079 80.7922 107.87C80.7922 108.867 82.1774 109.454 81.386 110.443C80.8626 111.098 81.3941 111.914 81.7815 112.818C82.3754 114.204 81.9795 115.391 80.5942 115.589C80.3174 115.629 80.0344 115.655 79.7588 115.655C78.7254 115.655 77.7892 115.281 77.6257 113.808C77.4278 112.026 77.1004 111.673 75.8446 110.641C75.2434 110.147 74.4003 109.497 74.6568 108.068C74.9015 106.706 73.285 106.685 73.4289 105.494C73.6675 103.516 71.0945 104.704 70.7005 102.539C70.1097 99.2921 67.4341 100.055 67.4341 97.7165C67.4341 97.0944 67.5896 96.6276 67.2783 96.1609C66.8472 95.5138 66.3452 96.1609 66.0339 94.6052C65.4715 91.793 64.1582 91.7554 62.8257 89.5332C62.2009 88.4913 62.1729 86.5486 62.3008 85.2724C62.4563 83.7168 62.1454 83.4059 61.2119 82.7837C60.7452 82.4724 60.2788 81.5393 60.7452 79.9837C61.509 77.4375 59.4636 78.6758 61.1135 74.9901C61.1135 74.9901 59.6317 71.2176 60.0119 68.2889C60.3512 65.6746 62.5941 65.1764 61.9907 59.383C61.7962 57.5115 63.3403 55.3409 64.1184 54.252C64.8068 53.2883 63.5245 52.23 63.8358 50.9856C64.0862 49.9832 64.8485 50.1276 65.0802 48.186C65.7058 42.937 67.2569 39.3525 68.4737 37.4526C69.2651 36.217 70.9368 35.2441 71.6884 35.0404C70.1051 33.6552 69.5117 30.0928 69.9072 29.499C69.9631 29.4151 70.0274 29.3803 70.0956 29.3803C70.4436 29.3803 70.8969 30.2908 70.8969 30.2908C70.8969 30.2908 70.6347 28.4633 72.0843 26.5305C72.3461 26.1813 72.5855 25.9906 72.7979 25.991Z" fill="#030D54"/>
<path fill-rule="evenodd" clip-rule="evenodd" d="M81.2732 95.5134C82.0753 97.8762 83.6344 99.5126 81.452 99.9694C80.9301 100.078 80.0139 98.3015 79.2401 95.9468C78.552 93.854 78.4605 91.7205 78.9713 91.5674C79.4821 91.4146 80.4764 93.1667 81.2732 95.5134Z" fill="#030D54"/>
<path fill-rule="evenodd" clip-rule="evenodd" d="M97.0149 96.9718C97.2975 100.305 97.5222 103.102 96.4057 103.102C95.1411 103.102 95.0561 100.495 94.7735 97.1621C94.4909 93.8287 94.8325 91.8519 95.4516 91.7994C96.0703 91.7469 96.7323 93.6388 97.0149 96.9718Z" fill="#030D54"/>
<path fill-rule="evenodd" clip-rule="evenodd" d="M112.41 99.3428C112.196 100.068 111.695 97.9506 111.262 96.5347C111.102 96.0117 110.92 95.4779 110.937 94.9258C110.955 94.3572 111.216 93.8626 111.514 93.3862C114.222 89.0612 113.698 85.6643 112.896 82.3592C112.823 82.0575 112.806 81.7493 112.917 81.6792C113.028 81.6095 113.213 81.6516 113.584 82.0272C113.955 82.4029 114.28 83.0097 114.532 83.6924C114.813 84.4505 115.092 85.3763 115.215 86.435C115.339 87.4929 115.356 88.6756 115.143 89.9162C115.003 90.7382 114.736 91.5775 114.354 92.3272C114.161 92.7051 113.934 93.065 113.672 93.3985C113.394 93.7511 113.059 94.0345 112.756 94.3622C112.494 94.6394 112.33 94.8669 112.235 95.1111C112.139 95.3543 112.119 95.6265 112.109 95.8838C112.117 96.014 112.429 99.2796 112.41 99.3428Z" fill="#030D54"/>
<path fill-rule="evenodd" clip-rule="evenodd" d="M79.0101 40.2853C79.0101 40.8864 78.5227 41.3739 77.9215 41.3739C77.3204 41.3739 76.833 40.8864 76.833 40.2853C76.833 39.6842 77.3204 39.1968 77.9215 39.1968C78.5227 39.1968 79.0101 39.6842 79.0101 40.2853Z" fill="white"/>
<path fill-rule="evenodd" clip-rule="evenodd" d="M66.753 55.2259C66.5481 55.2431 66.3161 54.8357 66.1695 54.1355C66.0224 53.4382 65.978 52.4469 66.1408 51.3752C66.3054 50.3036 66.6431 49.3709 66.9919 48.749C67.3407 48.1246 67.6842 47.8049 67.8741 47.8826C68.2665 48.0541 67.9258 49.6607 67.6382 51.6038C67.3327 53.5439 67.1787 55.1792 66.753 55.2259Z" fill="#030D54"/>
<path fill-rule="evenodd" clip-rule="evenodd" d="M64.959 64.9248C64.5692 65.0588 63.8402 63.9392 63.6679 62.3633C63.4906 60.7881 63.9562 59.5361 64.3659 59.5813C64.7878 59.6226 65.013 60.7981 65.1738 62.1964C65.3235 63.5954 65.3618 64.7919 64.959 64.9248Z" fill="#030D54"/>
<path fill-rule="evenodd" clip-rule="evenodd" d="M63.9858 76.2008C63.5914 76.3253 62.8398 75.0461 62.5442 73.2928C62.244 71.5408 62.5308 70.085 62.9443 70.0724C63.3667 70.0567 63.7553 71.3976 64.0378 73.0394C64.3135 74.6823 64.3897 76.076 63.9858 76.2008Z" fill="#FF7264"/>
<path fill-rule="evenodd" clip-rule="evenodd" d="M67.559 87.647C67.4403 87.8139 67.0789 87.8001 66.6099 87.557C66.1431 87.3177 65.5849 86.8314 65.1618 86.1549C64.7398 85.4772 64.5484 84.7623 64.5381 84.2382C64.5258 83.7098 64.6725 83.379 64.8742 83.3457C65.0844 83.3101 65.3111 83.5582 65.5646 83.9319C65.8177 84.3086 66.1102 84.8102 66.4467 85.3528C66.786 85.8934 67.1084 86.3766 67.3358 86.7694C67.5602 87.1615 67.6831 87.4739 67.559 87.647Z" fill="#030D54"/>
<path fill-rule="evenodd" clip-rule="evenodd" d="M82.7691 73.6232C82.7909 73.8285 82.4796 74.0578 81.9313 74.2136C81.3857 74.3699 80.6023 74.4392 79.7527 74.3285C78.9031 74.2167 78.1641 73.9483 77.6771 73.6566C77.1874 73.3648 76.9458 73.0631 77.0197 72.8705C77.1828 72.4765 78.4524 72.6381 79.9495 72.8265C81.4443 73.0302 82.7128 73.2009 82.7691 73.6232Z" fill="#030D54"/>
<path fill-rule="evenodd" clip-rule="evenodd" d="M100.767 75.6626C100.689 75.8679 100.105 75.8315 99.2147 75.8001C98.7698 75.7786 98.2391 75.7756 97.6495 75.7691C97.0449 75.7729 96.3883 75.7767 95.6994 75.7809C94.2969 75.7936 92.971 75.7193 92.0245 75.5003C91.0746 75.2874 90.5324 74.9711 90.5746 74.774C90.6186 74.5622 91.2032 74.4987 92.108 74.4324C93.0154 74.3731 94.2606 74.2789 95.6949 74.2663C96.412 74.2636 97.1077 74.2988 97.7421 74.3765C98.3773 74.4631 98.949 74.5829 99.4153 74.7479C100.353 75.0692 100.839 75.4788 100.767 75.6626Z" fill="#FF7264"/>
<path fill-rule="evenodd" clip-rule="evenodd" d="M108.708 82.5362C108.286 82.5925 107.823 81.6946 107.312 80.6535C106.816 79.6052 106.402 78.6836 106.709 78.3892C106.862 78.2513 107.187 78.3203 107.568 78.5975C107.948 78.8724 108.371 79.3636 108.677 79.9961C108.981 80.629 109.101 81.2665 109.08 81.7344C109.059 82.205 108.911 82.5021 108.708 82.5362Z" fill="#030D54"/>
<path fill-rule="evenodd" clip-rule="evenodd" d="M101.34 103.331C100.957 103.485 99.9332 101.815 99.3233 99.5187C98.708 97.2241 98.7643 95.2664 99.1728 95.2086C99.5921 95.1469 100.196 96.9285 100.787 99.1285C101.371 101.331 101.735 103.176 101.34 103.331Z" fill="#FF7264"/>
<path fill-rule="evenodd" clip-rule="evenodd" d="M104.149 102.528C104.561 102.602 104.569 104.475 104.167 106.713C103.766 108.95 103.106 110.703 102.695 110.629C102.283 110.556 102.275 108.682 102.676 106.445C103.078 104.208 103.737 102.454 104.149 102.528Z" fill="#FF7264"/>
<path fill-rule="evenodd" clip-rule="evenodd" d="M86.5204 93.5672C86.561 93.7636 86.2589 94.0362 85.6639 94.1736C85.0762 94.3138 84.2005 94.2698 83.3497 93.8895C82.499 93.5078 81.8837 92.8841 81.5965 92.3523C81.3032 91.8166 81.3051 91.41 81.479 91.3093C81.6643 91.1994 81.9775 91.379 82.3914 91.6344C82.8057 91.8936 83.3394 92.2221 83.9685 92.507C84.6002 92.7868 85.201 92.9664 85.6704 93.1027C86.1364 93.2413 86.479 93.3554 86.5204 93.5672Z" fill="#030D54"/>
<path fill-rule="evenodd" clip-rule="evenodd" d="M97.4131 86.8866C97.5896 87.2561 95.9566 88.3864 93.6229 88.9603C91.2919 89.5427 89.3197 89.3061 89.3032 88.8968C89.2795 88.4706 91.0848 88.0357 93.2584 87.49C95.4355 86.9575 97.235 86.4988 97.4131 86.8866Z" fill="#030D54"/>
<path fill-rule="evenodd" clip-rule="evenodd" d="M72.4942 98.762C72.0868 98.8895 71.2556 97.3526 70.2275 95.5186C69.2121 93.6773 68.3457 92.1599 68.6688 91.8812C68.9747 91.6086 70.4484 92.7886 71.5515 94.7823C72.6627 96.7718 72.887 98.6464 72.4942 98.762Z" fill="#030D54"/>
<path fill-rule="evenodd" clip-rule="evenodd" d="M77.0311 107.079C76.6184 107.164 76.0972 106.306 75.7274 105.205C75.3625 104.102 75.2652 103.103 75.6458 102.923C76.0203 102.744 76.7661 103.526 77.1647 104.726C77.5656 105.924 77.4381 106.998 77.0311 107.079Z" fill="#030D54"/>
<path fill-rule="evenodd" clip-rule="evenodd" d="M74.4818 75.3865C74.3566 75.5412 73.8968 75.4363 73.3389 74.9737C73.0598 74.7459 72.7742 74.4216 72.5115 74.0223C72.2573 73.6191 72.0314 73.1386 71.8813 72.6068C71.7373 72.0734 71.6841 71.5446 71.6956 71.0683C71.7159 70.5909 71.794 70.1663 71.9169 69.8266C72.1581 69.1436 72.4989 68.8174 72.6857 68.8859C72.891 68.9583 72.9262 69.3817 72.9771 69.9787C73.025 70.5786 73.1127 71.3643 73.3412 72.2032C73.5759 73.041 73.9037 73.76 74.1709 74.2995C74.4336 74.8378 74.6205 75.2192 74.4818 75.3865Z" fill="#FF7264"/>
<path fill-rule="evenodd" clip-rule="evenodd" d="M72.6852 67.3034C72.3103 67.1047 72.3647 66.2708 72.4968 65.3503C72.6442 64.4318 72.8402 63.6193 73.2572 63.5412C73.4613 63.5109 73.6872 63.7035 73.8457 64.0745C74.0046 64.4429 74.0835 64.99 73.9943 65.5777C73.9047 66.1658 73.6669 66.6647 73.4058 66.9688C73.1443 67.2762 72.8713 67.393 72.6852 67.3034Z" fill="#FF7264"/>
<path fill-rule="evenodd" clip-rule="evenodd" d="M71.1021 52.0574C71.4976 51.9208 72.0926 52.6042 72.4315 53.584C72.7703 54.5642 72.7248 55.4693 72.3293 55.606C71.9341 55.7427 71.3387 55.0592 70.9999 54.0794C70.661 53.0993 70.707 52.1941 71.1021 52.0574Z" fill="#FF7264"/>
<path fill-rule="evenodd" clip-rule="evenodd" d="M93.4571 77.716C93.4686 77.9231 93.0448 78.146 92.3227 78.3144C91.6044 78.4764 90.5556 78.5951 89.3722 78.3715C88.1818 78.1467 87.1794 77.5452 86.6491 76.9288C86.1058 76.3119 86.0219 75.7809 86.1885 75.6748C86.368 75.5527 86.7425 75.8085 87.3187 76.0929C87.8915 76.3851 88.7017 76.6998 89.6608 76.8847C90.6276 77.0697 91.5726 77.1336 92.2798 77.2443C92.9866 77.3507 93.4453 77.5058 93.4571 77.716Z" fill="#FF7264"/>
<path fill-rule="evenodd" clip-rule="evenodd" d="M108.316 91.0488C108.729 91.0496 109.054 92.8032 108.752 94.9374C108.456 97.0724 107.662 98.6694 107.265 98.5568C106.856 98.4442 106.972 96.7526 107.251 94.7272C107.539 92.7033 107.892 91.045 108.316 91.0488Z" fill="#FF7264"/>
<path fill-rule="evenodd" clip-rule="evenodd" d="M111.498 83.3302C111.909 83.3141 112.293 84.8648 111.972 86.7543C111.658 88.645 110.788 89.9855 110.405 89.8362C110.007 89.6868 110.194 88.2315 110.478 86.5035C110.774 84.7775 111.073 83.3413 111.498 83.3302Z" fill="#030D54"/>
<path fill-rule="evenodd" clip-rule="evenodd" d="M74.8689 93.6022C74.6185 93.9304 73.0533 93.1504 71.5662 91.6511C70.0745 90.1555 69.3033 88.5857 69.633 88.3372C69.9695 88.0799 71.2258 89.1665 72.6398 90.5828C74.0484 92.0045 75.1281 93.2672 74.8689 93.6022Z" fill="#FF7264"/>
<path fill-rule="evenodd" clip-rule="evenodd" d="M78.6164 102.13C78.235 102.302 77.5271 101.555 77.0351 100.462C76.5434 99.3689 76.4538 98.3435 76.8356 98.172C77.2169 98.0004 77.9249 98.7474 78.4165 99.8406C78.9085 100.933 78.9977 101.959 78.6164 102.13Z" fill="#030D54"/>
<path fill-rule="evenodd" clip-rule="evenodd" d="M70.9198 83.4791C70.8306 83.6625 70.3424 83.6464 69.6402 83.383C68.9407 83.1218 68.0382 82.5946 67.1997 81.822C66.3627 81.0478 65.7654 80.1905 65.4496 79.5139C65.131 78.8351 65.0755 78.35 65.2516 78.2458C65.6276 78.0368 66.7253 79.339 68.2274 80.7093C69.7126 82.0969 71.0986 83.0874 70.9198 83.4791Z" fill="#FF7264"/>
<path fill-rule="evenodd" clip-rule="evenodd" d="M102.363 92.0382C102.123 92.3889 101.2 92.1707 100.161 91.8835C99.1257 91.581 98.2267 91.2816 98.2068 90.857C98.2045 90.6506 98.4549 90.4527 98.8895 90.3481C99.3214 90.2432 99.9359 90.2451 100.575 90.4266C101.214 90.6085 101.738 90.9297 102.05 91.2464C102.365 91.5638 102.473 91.864 102.363 92.0382Z" fill="#030D54"/>
<defs>
<radialGradient id="paint0_radial" cx="0" cy="0" r="1" gradientUnits="userSpaceOnUse" gradientTransform="translate(32.0153 0.727539) rotate(90) scale(80.6312 64.0307)">
<stop stop-color="white"/>
<stop offset="1" stop-color="white" stop-opacity="0.01"/>
</radialGradient>
</defs>
</svg>
