<svg width="655" height="569" viewBox="0 0 655 569" fill="none" xmlns="http://www.w3.org/2000/svg">
<rect width="655" height="569" fill="white"/>
<path d="M483.538 504.983H159.848C74.0595 485.968 4.00007 420.474 4.00007 322.531C3.98761 307.716 5.58804 292.943 8.77304 278.475L269.682 236.41L470.957 203.963C485.416 213.431 499.176 223.928 512.129 235.374L319.47 308.93L228.585 343.632L330.651 318.241L542.495 265.542C555.364 279.938 567.061 295.343 577.471 311.609L513.408 359.55L585.788 325.26C586.095 325.789 586.4 326.319 586.703 326.849C632.116 406.166 574.874 504.983 483.538 504.983Z" fill="#4629D3" fill-opacity="0.3"/>
<path d="M483.538 504.983H159.848C74.0595 485.968 4.00007 420.474 4.00007 322.531C3.98761 307.716 5.58804 292.943 8.77304 278.475L269.682 236.41L470.957 203.963C485.416 213.431 499.176 223.928 512.129 235.374L319.47 308.93L228.585 343.632L330.651 318.241L542.495 265.542C555.364 279.938 567.061 295.343 577.471 311.609L513.408 359.55L585.788 325.26C586.095 325.789 586.4 326.319 586.703 326.849C632.116 406.166 574.874 504.983 483.538 504.983Z" fill="url(#paint0_linear)" fill-opacity="0.5"/>
<path d="M260.641 217.939C171.091 237.185 77.9966 257.499 10.2207 272.349C11.7181 266.485 13.4609 260.742 15.4491 255.12C68.5384 200.104 137.774 163.469 213.093 150.539H213.099C233.261 147.099 253.678 145.373 274.13 145.381C328.769 145.304 382.703 157.727 431.812 181.7C382.816 191.829 322.577 204.631 260.641 217.939Z" fill="#4629D3" fill-opacity="0.3"/>
<path d="M260.641 217.939C171.091 237.185 77.9966 257.499 10.2207 272.349C11.7181 266.485 13.4609 260.742 15.4491 255.12C68.5384 200.104 137.774 163.469 213.093 150.539H213.099C233.261 147.099 253.678 145.373 274.13 145.381C328.769 145.304 382.703 157.727 431.812 181.7C382.816 191.829 322.577 204.631 260.641 217.939Z" fill="url(#paint1_linear)" fill-opacity="0.5"/>
<path d="M482.923 504.984C450.68 535.901 342.642 537.213 170.348 507.063C166.823 506.445 163.323 505.752 159.848 504.984C74.0595 485.968 4.00007 420.474 4.00007 322.532C3.98761 307.716 5.58804 292.943 8.77304 278.475C9.22224 276.421 9.70473 274.379 10.2205 272.349C11.7179 266.485 13.4607 260.742 15.4489 255.12C39.7192 186.547 99.9208 138 170.348 138C187.843 138 201.638 142.64 213.093 150.539H213.099C233.981 164.94 247.084 190.181 260.641 217.939C263.605 224.002 266.587 230.191 269.682 236.411C282.441 262.058 297.022 288.261 319.47 308.931C323.035 312.224 326.767 315.332 330.651 318.241C332.61 319.715 334.625 321.145 336.697 322.532C470.72 412.287 515.498 473.741 482.923 504.984Z" fill="#DFDAFA"/>
<path d="M471.5 332.94C544.125 332.94 603 329.372 603 324.97C603 320.568 544.125 317 471.5 317C398.875 317 340 320.568 340 324.97C340 329.372 398.875 332.94 471.5 332.94Z" fill="#63FFD4"/>
<path d="M471.5 332.94C544.125 332.94 603 329.372 603 324.97C603 320.568 544.125 317 471.5 317C398.875 317 340 320.568 340 324.97C340 329.372 398.875 332.94 471.5 332.94Z" fill="url(#paint2_linear)" fill-opacity="0.5"/>
<path d="M603 324.974C603 325.044 602.985 325.113 602.956 325.179C602.188 327.214 590.33 330.871 571.132 334.318C567.928 334.889 564.516 335.457 560.923 336.014C541.685 338.921 522.172 340.865 502.533 341.832C492.58 342.335 482.189 342.622 471.498 342.622C399.97 342.622 341.782 329.773 340.044 325.179C340.015 325.113 340 325.044 340 324.974C339.999 324.93 340.006 324.887 340.02 324.844C340.024 324.817 340.034 324.791 340.049 324.765C341.954 320.774 400.073 326.684 471.498 326.684C485.394 326.684 498.792 326.462 511.364 326.13C536.336 325.47 558.078 324.389 574.105 323.798C575.666 323.743 577.172 323.688 578.619 323.644C593.322 323.161 602.227 323.244 602.951 324.766C602.966 324.791 602.976 324.817 602.98 324.844C602.994 324.887 603.001 324.93 603 324.974Z" fill="#2CCBBB"/>
<path d="M603 324.974C603 325.044 602.985 325.113 602.956 325.179C602.188 327.214 590.33 330.871 571.132 334.318C567.928 334.889 564.516 335.457 560.923 336.014C541.685 338.921 522.172 340.865 502.533 341.832C492.58 342.335 482.189 342.622 471.498 342.622C399.97 342.622 341.782 329.773 340.044 325.179C340.015 325.113 340 325.044 340 324.974C339.999 324.93 340.006 324.887 340.02 324.844C340.024 324.817 340.034 324.791 340.049 324.765C341.954 320.774 400.073 326.684 471.498 326.684C485.394 326.684 498.792 326.462 511.364 326.13C536.336 325.47 558.078 324.389 574.105 323.798C575.666 323.743 577.172 323.688 578.619 323.644C593.322 323.161 602.227 323.244 602.951 324.766C602.966 324.791 602.976 324.817 602.98 324.844C602.994 324.887 603.001 324.93 603 324.974Z" fill="url(#paint3_linear)" fill-opacity="0.5"/>
<path d="M168 512.788C253.604 512.788 323 508.582 323 503.394C323 498.206 253.604 494 168 494C82.3959 494 13 498.206 13 503.394C13 508.582 82.3959 512.788 168 512.788Z" fill="#63FFD4"/>
<path d="M168 512.788C253.604 512.788 323 508.582 323 503.394C323 498.206 253.604 494 168 494C82.3959 494 13 498.206 13 503.394C13 508.582 82.3959 512.788 168 512.788Z" fill="url(#paint4_linear)" fill-opacity="0.5"/>
<path d="M323 503.399C323 503.481 322.982 503.563 322.948 503.641C322.043 506.04 308.065 510.349 285.437 514.413C281.66 515.086 277.639 515.755 273.404 516.412C250.727 519.838 227.727 522.13 204.579 523.27C192.847 523.862 180.599 524.201 167.997 524.201C83.6869 524.201 15.1004 509.055 13.0523 503.641C13.0179 503.563 13.0003 503.481 13.0001 503.399C12.9992 503.348 13.007 503.296 13.0233 503.246C13.0287 503.214 13.0404 503.183 13.0581 503.153C15.3035 498.449 83.8088 505.415 167.997 505.415C184.376 505.415 200.17 505.153 214.988 504.762C244.422 503.984 270.05 502.71 288.942 502.012C290.781 501.948 292.556 501.883 294.262 501.831C311.593 501.263 322.089 501.359 322.942 503.153C322.96 503.183 322.971 503.214 322.977 503.246C322.993 503.296 323.001 503.348 323 503.399Z" fill="#2CCBBB"/>
<path d="M323 503.399C323 503.481 322.982 503.563 322.948 503.641C322.043 506.04 308.065 510.349 285.437 514.413C281.66 515.086 277.639 515.755 273.404 516.412C250.727 519.838 227.727 522.13 204.579 523.27C192.847 523.862 180.599 524.201 167.997 524.201C83.6869 524.201 15.1004 509.055 13.0523 503.641C13.0179 503.563 13.0003 503.481 13.0001 503.399C12.9992 503.348 13.007 503.296 13.0233 503.246C13.0287 503.214 13.0404 503.183 13.0581 503.153C15.3035 498.449 83.8088 505.415 167.997 505.415C184.376 505.415 200.17 505.153 214.988 504.762C244.422 503.984 270.05 502.71 288.942 502.012C290.781 501.948 292.556 501.883 294.262 501.831C311.593 501.263 322.089 501.359 322.942 503.153C322.96 503.183 322.971 503.214 322.977 503.246C322.993 503.296 323.001 503.348 323 503.399Z" fill="url(#paint5_linear)" fill-opacity="0.5"/>
<path opacity="0.42" d="M238.772 505.133C251.348 505.133 261.543 502.865 261.543 500.067C261.543 497.268 251.348 495 238.772 495C226.195 495 216 497.268 216 500.067C216 502.865 226.195 505.133 238.772 505.133Z" fill="#2CCBBB"/>
<path opacity="0.42" d="M84.7717 504.133C97.3482 504.133 107.543 501.865 107.543 499.067C107.543 496.268 97.3482 494 84.7717 494C72.1953 494 62 496.268 62 499.067C62 501.865 72.1953 504.133 84.7717 504.133Z" fill="#2CCBBB"/>
<path fill-rule="evenodd" clip-rule="evenodd" d="M88.288 489.375L86.0765 454.82L86.0306 454.746L83.8015 455.522L73.5447 485.459L57.2319 473.89L83.216 455.045L83.2407 454.971L83.3888 454.918L85.0642 453.701L57.821 438.421L51.1477 445.759L52.2058 452.639L83.5335 453.211V453.916L51.6203 453.345L50.4141 445.533L59.5492 435.492L73.2167 419.545L73.4601 420.204L76.3523 417.029L87.0958 418.955V418.529L87.8012 418.55V419.082L103.8 421.947L88.884 451.8L86.7078 453.377V453.553V453.751L121.203 441.727L117.108 473.907L87.833 455.254L86.8031 454.675L104.065 482.506L88.288 489.375ZM86.8771 456.09L88.9404 488.33L103.066 482.198L86.8771 456.09ZM73.1975 484.336L58.4578 473.882L82.8406 456.202L73.1975 484.336ZM87.492 454.245L88.2291 454.657L116.569 472.722L120.379 442.778L87.492 454.245ZM85.8709 453.133L84.9856 451.704L73.7165 420.967L76.5946 417.791L87.0842 419.668L86.0261 453.02L85.8709 453.133ZM58.3878 437.923L84.7846 452.742L84.3261 451.99L73.1875 421.552L60.0703 435.972L58.3878 437.923ZM86.743 452.505L87.8011 419.791L102.767 422.48L88.3373 451.348L86.743 452.505Z" fill="#28316D"/>
<path d="M119.703 417.106L134.766 431.976L130.059 436.747L114.996 421.878L119.703 417.106Z" fill="#28316D"/>
<path fill-rule="evenodd" clip-rule="evenodd" d="M225.736 413.822C229.345 412.825 233.072 412.322 236.815 412.326H236.811C258.096 412.334 275.927 428.445 278.093 449.626C280.26 470.807 266.06 490.196 245.218 494.516C224.376 498.836 203.644 486.688 197.218 466.39C190.792 446.092 200.754 424.22 220.283 415.752C222.053 414.98 223.875 414.335 225.736 413.822ZM206.061 460.349C209.193 474.756 221.936 485.033 236.675 485.039H236.678C248.826 485.035 259.878 478.008 265.039 467.007C270.199 456.006 268.539 443.013 260.778 433.664C253.017 424.315 240.554 420.295 228.795 423.348C227.033 423.804 225.315 424.414 223.66 425.172C210.255 431.3 202.929 445.943 206.061 460.349Z" fill="#28316D"/>
<path d="M170.474 365.168C170.474 365.168 211.97 363.756 212.816 369.123C213.663 374.489 171.32 372.228 171.32 372.228C171.32 372.228 167.934 368.837 170.474 365.168Z" fill="#676D98"/>
<rect x="129.543" y="386.63" width="7.33988" height="63.8182" fill="#030D54"/>
<path opacity="0.1" d="M136.883 386.626V391.541C134.442 391.858 131.945 392.059 129.543 392.137V386.626H136.883Z" fill="black"/>
<path d="M136.333 381.338C135.303 381.258 134.278 381.12 133.264 380.925C129.286 380.163 119.255 378.564 116.556 381.278C113.17 384.665 114.299 390.596 123.332 391.442C132.365 392.289 147.891 390.031 150.998 386.641C150.998 386.626 145.38 382.033 136.333 381.338Z" fill="#28316D"/>
<path d="M134.908 404.137L211.975 380.134L214.515 386.065L135.473 413.172L134.908 404.137Z" fill="#030D54"/>
<path d="M157.773 441.977L213.385 387.195L216.489 391.711L163.417 447.058L157.773 441.977Z" fill="#030D54"/>
<path d="M171.605 380.134L210.279 366.861C210.279 366.861 217.055 367.708 214.512 373.357L175.559 384.933C175.559 384.933 169.633 385.497 171.605 380.134Z" fill="#030D54"/>
<path fill-rule="evenodd" clip-rule="evenodd" d="M113.618 422.276C115.427 423.842 117.1 425.561 118.616 427.413C122.7 432.396 125.564 438.266 126.979 444.553C127.654 447.553 127.993 450.619 127.991 453.694C127.99 455.859 127.823 458.019 127.49 460.158C124.546 478.839 109.351 493.169 90.5349 495.008C71.7185 496.846 54.0382 485.73 47.5354 467.972C41.0326 450.214 47.3515 430.304 62.9032 419.55C78.455 408.796 99.3076 409.916 113.618 422.276ZM56.9422 464.227C61.4195 476.621 73.1749 484.884 86.349 484.898C101.476 484.901 114.446 474.093 117.176 459.209C119.542 446.245 113.541 433.186 102.163 426.543C90.786 419.899 76.4679 421.092 66.346 429.526C56.2241 437.961 52.4649 451.833 56.9422 464.227Z" fill="#28316D"/>
<path opacity="0.1" d="M127.991 453.694C127.991 455.858 127.823 458.019 127.49 460.158C124.104 459.914 120.605 459.562 117.177 459.209C117.939 455.013 117.844 450.707 116.898 446.549C120.239 445.844 123.649 445.17 126.979 444.56C127.653 447.558 127.993 450.621 127.991 453.694Z" fill="black"/>
<path opacity="0.1" d="M136.883 442.94V450.444H129.543V444.094C132.082 443.653 134.551 443.261 136.883 442.94Z" fill="black"/>
<path d="M89.4579 453.563C89.4579 453.563 148.741 438.039 153.538 443.963C158.335 449.887 163.418 457.797 148.47 460.62C133.522 463.442 88.3398 455.818 88.3398 455.818L89.4579 453.563Z" fill="#030D54"/>
<path opacity="0.1" d="M118.616 427.412L111.083 434.31C109.748 432.596 108.24 431.026 106.582 429.624L113.615 422.275C115.426 423.841 117.099 425.56 118.616 427.412Z" fill="black"/>
<path d="M87.4824 450.448L131.8 404.137L133.215 414.866L89.7398 454.682L87.4824 450.448Z" fill="#030D54"/>
<path opacity="0.1" d="M86.9166 458.072C89.412 458.072 91.4348 456.049 91.4348 453.553C91.4348 451.057 89.412 449.033 86.9166 449.033C84.4213 449.033 82.3984 451.057 82.3984 453.553C82.3984 456.049 84.4213 458.072 86.9166 458.072Z" fill="black"/>
<path d="M86.3502 458.072C88.8456 458.072 90.8684 456.049 90.8684 453.553C90.8684 451.057 88.8456 449.033 86.3502 449.033C83.8549 449.033 81.832 451.057 81.832 453.553C81.832 456.049 83.8549 458.072 86.3502 458.072Z" fill="#676D98"/>
<path opacity="0.1" d="M156.359 458.072C161.348 458.072 165.392 454.027 165.392 449.037C165.392 444.046 161.348 440.001 156.359 440.001C151.37 440.001 147.326 444.046 147.326 449.037C147.326 454.027 151.37 458.072 156.359 458.072Z" fill="black"/>
<path d="M156.927 458.072C161.916 458.072 165.96 454.027 165.96 449.037C165.96 444.046 161.916 440.001 156.927 440.001C151.939 440.001 147.895 444.046 147.895 449.037C147.895 454.027 151.939 458.072 156.927 458.072Z" fill="#676D98"/>
<path d="M154.029 451.719C153.235 450.657 153.452 449.153 154.513 448.359C155.575 447.565 157.08 447.782 157.874 448.844L165.041 458.432C165.835 459.493 165.618 460.997 164.556 461.791C163.495 462.585 161.99 462.368 161.196 461.306L154.029 451.719Z" fill="#28316D"/>
<path opacity="0.1" d="M153.631 447.036L144.46 451.976L141.639 449.859V448.448C144.807 448.222 147.886 447.293 150.65 445.727C151.497 445.248 152.294 444.775 152.932 444.358C153.303 445.992 153.631 447.036 153.631 447.036Z" fill="black"/>
<rect x="147.457" y="458.855" width="21.1625" height="6.7036" fill="#6C63FF"/>
<rect x="147.457" y="458.855" width="21.1625" height="6.7036" fill="#28316D"/>
<path fill-rule="evenodd" clip-rule="evenodd" d="M238.611 489.516L236.403 454.975L236.357 454.901L234.128 455.677L223.867 485.6L207.555 474.027L233.546 455.183L233.57 455.109L233.719 455.056L235.394 453.839L208.151 438.558L201.474 445.897L202.532 452.777L233.853 453.334V454.04L201.939 453.468L200.74 445.667L209.872 435.63L223.529 419.693L223.772 420.352L226.664 417.177L237.436 419.107V418.68L238.142 418.701V419.234L254.14 422.099L239.21 451.965L237.034 453.542V453.719V453.916L271.532 441.892L267.438 474.073L238.163 455.419L237.133 454.841L254.394 482.675L238.611 489.516ZM237.2 456.231L239.264 488.472L253.39 482.34L237.2 456.231ZM223.524 484.481L208.784 474.027L233.167 456.347L223.524 484.481ZM237.818 454.389L238.555 454.802L266.895 472.866L270.705 442.922L237.818 454.389ZM236.197 453.278L235.312 451.849L224.043 421.104L226.921 417.929L237.41 419.813L236.352 453.165L236.197 453.278ZM208.723 438.071L235.12 452.89L234.661 452.138L223.522 421.701L210.402 436.124L208.723 438.071ZM237.069 452.643L238.127 419.94L253.093 422.618L238.663 451.485L237.069 452.643Z" fill="#28316D"/>
<path d="M238.224 451.012L234.274 453.27L206.713 376.239L205.479 372.792L211.972 369.119L213.598 374.193L238.224 451.012Z" fill="#030D54"/>
<path opacity="0.1" d="M236.395 457.649C238.89 457.649 240.913 455.626 240.913 453.129C240.913 450.633 238.89 448.61 236.395 448.61C233.9 448.61 231.877 450.633 231.877 453.129C231.877 455.626 233.9 457.649 236.395 457.649Z" fill="black"/>
<path d="M236.674 458.214C239.17 458.214 241.193 456.19 241.193 453.694C241.193 451.198 239.17 449.175 236.674 449.175C234.179 449.175 232.156 451.198 232.156 453.694C232.156 456.19 234.179 458.214 236.674 458.214Z" fill="#676D98"/>
<path opacity="0.1" d="M228.794 423.348C227.032 423.803 225.314 424.414 223.659 425.172L220.287 415.748C222.057 414.976 223.879 414.331 225.74 413.818L228.794 423.348Z" fill="black"/>
<path opacity="0.1" d="M213.598 374.193L206.713 376.239L205.479 372.792L211.972 369.119L213.598 374.193Z" fill="black"/>
<path opacity="0.42" d="M409.243 323.083C424.841 323.083 437.485 320.554 437.485 317.434C437.485 314.315 424.841 311.786 409.243 311.786C393.645 311.786 381 314.315 381 317.434C381 320.554 393.645 323.083 409.243 323.083Z" fill="#2CCBBB"/>
<path opacity="0.42" d="M515.758 323.083C531.356 323.083 544.001 320.554 544.001 317.434C544.001 314.315 531.356 311.786 515.758 311.786C500.16 311.786 487.516 314.315 487.516 317.434C487.516 320.554 500.16 323.083 515.758 323.083Z" fill="#2CCBBB"/>
<path fill-rule="evenodd" clip-rule="evenodd" d="M425.948 303.965C425.948 312.829 418.767 320.015 409.909 320.015C401.05 320.015 393.869 312.829 393.869 303.965C393.869 295.1 401.05 287.915 409.909 287.915C418.767 287.915 425.948 295.1 425.948 303.965ZM420.069 303.964C420.069 309.578 415.52 314.129 409.91 314.129C404.3 314.129 399.752 309.578 399.752 303.964C399.752 298.35 404.3 293.799 409.91 293.799C415.52 293.799 420.069 298.35 420.069 303.964Z" fill="#28316D"/>
<path fill-rule="evenodd" clip-rule="evenodd" d="M531.253 304.084C531.253 312.948 524.072 320.134 515.213 320.134C506.355 320.134 499.174 312.948 499.174 304.084C499.174 295.22 506.355 288.034 515.213 288.034C524.072 288.034 531.253 295.22 531.253 304.084ZM525.543 304.267C525.543 309.881 520.995 314.432 515.385 314.432C509.774 314.432 505.226 309.881 505.226 304.267C505.226 298.653 509.774 294.102 515.385 294.102C520.995 294.102 525.543 298.653 525.543 304.267Z" fill="#28316D"/>
<path fill-rule="evenodd" clip-rule="evenodd" d="M511.812 266.637L483.939 293.436L486.534 296.955L511.812 271.42V266.637Z" fill="#28316D" stroke="#030D54" stroke-width="1.35" stroke-linejoin="round"/>
<path fill-rule="evenodd" clip-rule="evenodd" d="M492.433 289.007L409.934 302.323L409.934 304.927L485.894 297.281L492.433 289.007Z" fill="#28316D" stroke="#030D54" stroke-width="1.35" stroke-linejoin="round"/>
<path fill-rule="evenodd" clip-rule="evenodd" d="M394.978 288.555C394.978 288.555 408.493 277.587 420.415 285.808C421.76 286.736 435.695 296.967 435.695 296.967C435.695 296.967 440.933 297.701 440.826 296.175C440.757 295.188 443.426 296.919 443.713 296.175C443.87 295.768 440.973 294.549 434.571 290.738C426.572 285.976 413.989 276.27 403.372 280.967C392.755 285.665 394.978 288.555 394.978 288.555Z" fill="#28316D" stroke="#030D54" stroke-width="1.35" stroke-linejoin="round"/>
<path d="M409.933 308.699C412.768 308.699 415.066 306.399 415.066 303.563C415.066 300.726 412.768 298.427 409.933 298.427C407.099 298.427 404.801 300.726 404.801 303.563C404.801 306.399 407.099 308.699 409.933 308.699Z" fill="#030D54"/>
<path d="M409.934 307.076C411.873 307.076 413.446 305.503 413.446 303.562C413.446 301.621 411.873 300.048 409.934 300.048C407.994 300.048 406.422 301.621 406.422 303.562C406.422 305.503 407.994 307.076 409.934 307.076Z" fill="white" fill-opacity="0.4"/>
<path d="M511.078 193.563C512.042 193.833 514.484 196.707 514.484 196.707L518.633 302.494L512.135 303.063L509.505 196.933L509.123 194.04C508.756 193.545 510.114 193.293 511.078 193.563Z" fill="#030D54"/>
<path d="M495.463 184.334C495.331 185.316 495.444 186.398 495.775 187.333C496.107 188.267 496.629 188.974 497.221 189.292L518.821 201.393L518.493 196.418L498.332 182.305C497.871 181.984 497.38 181.913 496.931 182.101C496.221 182.315 495.668 183.156 495.463 184.334Z" fill="#676D98"/>
<path d="M515.644 309.355C518.479 309.355 520.777 307.056 520.777 304.219C520.777 301.383 518.479 299.083 515.644 299.083C512.81 299.083 510.512 301.383 510.512 304.219C510.512 307.056 512.81 309.355 515.644 309.355Z" fill="#030D54"/>
<path d="M515.645 307.733C517.584 307.733 519.156 306.16 519.156 304.219C519.156 302.278 517.584 300.705 515.645 300.705C513.705 300.705 512.133 302.278 512.133 304.219C512.133 306.16 513.705 307.733 515.645 307.733Z" fill="white" fill-opacity="0.4"/>
<path d="M279.45 79.0375C276.056 78.2188 272.608 77.6449 269.131 77.3202C269.443 75.9691 268.603 74.6213 267.253 74.3098C265.904 73.9983 264.557 74.8411 264.245 76.1922C260.979 74.9601 257.628 73.9642 254.218 73.2122C246.686 71.4733 240.388 70.9059 240.147 71.9485C239.906 72.9912 245.829 75.23 253.361 76.9689C256.755 77.7876 260.203 78.3615 263.68 78.6862C263.61 78.9882 263.594 79.3 263.633 79.6074C263.115 79.795 262.717 80.2183 262.561 80.7473C262.405 81.2763 262.51 81.8479 262.843 82.2866C261.536 82.4382 260.353 83.1342 259.584 84.204C259.036 83.5207 258.288 83.0259 257.445 82.7884L232.373 75.7707C231.125 72.7848 228.523 70.5801 225.375 69.8429L209.399 66.1545C206.222 65.4326 202.892 66.2927 200.459 68.4634L176.122 64.0134C175.325 63.8681 174.503 63.9564 173.754 64.2678C173.527 63.1231 172.881 62.1047 171.943 61.4115C172.481 61.2045 172.88 60.743 173.007 60.181C173.176 59.4677 172.871 58.7264 172.25 58.3388C172.373 58.1217 172.464 57.8883 172.521 57.6456C175.788 58.8777 179.139 59.8736 182.549 60.6256C190.081 62.3645 196.379 62.932 196.62 61.8893C196.86 60.8466 190.951 58.5957 183.419 56.8568C180.025 56.0381 176.576 55.4642 173.1 55.1394C173.434 53.7746 172.602 52.3968 171.24 52.0602C169.868 51.7656 168.516 52.6391 168.219 54.0125C164.952 52.7804 161.601 51.7846 158.191 51.0325C150.659 49.2936 144.361 48.7262 144.12 49.7689C143.879 50.8115 149.781 53.0555 157.313 54.7944C160.707 55.6131 164.155 56.187 167.631 56.5117C167.562 56.8137 167.546 57.1255 167.585 57.4329C167.054 57.6267 166.65 58.0674 166.502 58.614C166.355 59.1606 166.483 59.7445 166.845 60.179C164.924 60.475 163.377 61.915 162.943 63.8121L162.227 66.9113C161.931 68.1189 162.126 69.3946 162.769 70.4577C163.413 71.5208 164.451 72.2841 165.657 72.5798L167.449 72.9933C168.882 73.3188 170.385 72.9326 171.486 71.9557C172.057 72.8352 172.934 73.4705 173.947 73.738L197.404 79.8687C197.871 81.2605 198.627 82.5374 199.623 83.6152C196.818 85.4564 185.581 93.9048 182.734 112.708C182.734 112.708 183.538 115.761 187.82 113.883C187.82 113.883 190.228 92.7762 205.295 87.3076C205.424 88.7397 206.451 89.9293 207.847 90.2646L209.519 90.6505C205.818 91.2768 202.863 94.0837 202.044 97.7509C201.2 100.926 202.151 104.308 204.525 106.574C206.899 108.84 210.319 109.63 213.446 108.634C216.573 107.638 218.911 105.015 219.544 101.791C220.415 98.1358 218.989 94.3176 215.938 92.1325L217.61 92.5184C219.012 92.8292 220.456 92.2101 221.2 90.9795C232.348 102.485 225.256 122.525 225.256 122.525C228.291 126.092 230.342 123.7 230.342 123.7C236.855 102.921 227.52 89.5117 227.52 89.5117L227.305 89.4621C228.34 88.9529 229.284 88.2753 230.097 87.4569L255.099 92.4733C256.19 92.6954 257.325 92.4777 258.257 91.8674C258.796 93.2936 260.008 94.3573 261.491 94.7047L263.282 95.1182C264.495 95.3811 265.764 95.1504 266.808 94.4769C267.852 93.8035 268.587 92.7424 268.85 91.5271L269.565 88.4278C269.993 86.6224 269.333 84.7335 267.875 83.5893C268.515 83.388 268.98 82.8343 269.069 82.1692C269.158 81.5041 268.854 80.8478 268.29 80.4861C268.412 80.2689 268.503 80.0356 268.561 79.7929C271.826 81.0313 275.175 82.0336 278.584 82.792C286.116 84.5309 292.414 85.0984 292.655 84.0557C292.895 83.013 286.987 80.7775 279.45 79.0375Z" fill="url(#paint6_linear)"/>
<path d="M208.254 107.663C212.938 108.744 217.614 105.818 218.697 101.127C219.78 96.4355 216.861 91.7557 212.176 90.6741C207.491 89.5926 202.815 92.5188 201.732 97.2101C200.649 101.901 203.569 106.581 208.254 107.663Z" fill="#28316D"/>
<path d="M208.891 104.899C212.051 105.628 215.205 103.654 215.935 100.49C216.666 97.3252 214.696 94.1685 211.536 93.4389C208.376 92.7093 205.222 94.6832 204.492 97.8477C203.761 101.012 205.731 104.169 208.891 104.899Z" fill="#676D98"/>
<path d="M209.348 102.923C211.418 103.401 213.485 102.108 213.964 100.034C214.443 97.9607 213.152 95.8922 211.081 95.4142C209.011 94.9361 206.944 96.2295 206.465 98.3031C205.987 100.377 207.277 102.445 209.348 102.923Z" fill="#030D54"/>
<path d="M199.912 83.4708C199.912 83.4708 186.123 90.9018 183.117 111.22C183.117 111.22 183.905 114.107 188.051 112.359C188.051 112.359 190.928 86.389 211.752 86.2043L199.912 83.4708Z" fill="#28316D"/>
<path d="M226.35 89.5741C226.35 89.5741 235.486 102.298 229.28 121.878C229.28 121.878 227.307 124.127 224.347 120.739C224.347 120.739 233.146 96.1354 214.51 86.8406L226.35 89.5741Z" fill="#28316D"/>
<rect x="199.051" y="65.1714" width="35.6359" height="19.767" rx="9.88352" transform="rotate(13 199.051 65.1714)" fill="#030D54"/>
<path d="M201.297 81.3772L174.385 74.3528C172.201 73.7833 170.867 71.5779 171.373 69.3755L171.614 68.3329C172.117 66.156 174.241 64.7598 176.436 65.1639L203.806 70.2034C204.926 70.4097 205.913 71.0652 206.537 72.018C207.162 72.9709 207.37 74.1381 207.114 75.2491L206.417 78.267C206.165 79.3679 205.478 80.3198 204.513 80.9058C203.549 81.4918 202.388 81.6618 201.297 81.3772Z" fill="#6C63FF"/>
<path d="M225.827 87.0405L253.095 92.5248C255.307 92.9701 257.473 91.5729 257.983 89.3713L258.224 88.3286C258.726 86.1516 257.429 83.9654 255.279 83.3668L228.47 75.8977C227.373 75.5922 226.199 75.7489 225.22 76.3315C224.241 76.9141 223.542 77.8719 223.285 78.9828L222.588 82.0008C222.333 83.1008 222.533 84.2575 223.143 85.207C223.753 86.1565 224.721 86.818 225.827 87.0405Z" fill="#6C63FF"/>
<path d="M201.297 81.3772L174.385 74.3528C172.201 73.7833 170.867 71.5779 171.373 69.3755L171.614 68.3329C172.117 66.156 174.241 64.7598 176.436 65.1639L203.806 70.2034C204.926 70.4097 205.913 71.0652 206.537 72.018C207.162 72.9709 207.37 74.1381 207.114 75.2491L206.417 78.267C206.165 79.3679 205.478 80.3198 204.513 80.9058C203.549 81.4918 202.388 81.6618 201.297 81.3772Z" fill="#676D98"/>
<path d="M225.827 87.0405L253.095 92.5248C255.307 92.9701 257.473 91.5729 257.983 89.3713L258.224 88.3286C258.726 86.1516 257.429 83.9654 255.279 83.3668L228.47 75.8977C227.373 75.5922 226.199 75.7489 225.22 76.3315C224.241 76.9141 223.542 77.8719 223.285 78.9828L222.588 82.0008C222.333 83.1008 222.533 84.2575 223.143 85.207C223.753 86.1565 224.721 86.818 225.827 87.0405Z" fill="#676D98"/>
<rect x="164.684" y="60.5667" width="10.73" height="11.9623" rx="5.365" transform="rotate(13 164.684 60.5667)" fill="#030D54"/>
<rect x="257.604" y="82.019" width="10.73" height="11.9623" rx="5.365" transform="rotate(13 257.604 82.019)" fill="#030D54"/>
<rect x="167.445" y="58.4988" width="6.48015" height="3.2446" rx="1.6223" transform="rotate(13 167.445 58.4988)" fill="#28316D"/>
<rect x="169.268" y="53.3027" width="4.85766" height="7.29913" rx="2.42883" transform="rotate(13 169.268 53.3027)" fill="#28316D"/>
<path d="M158.175 56.3587C165.474 58.0438 171.575 58.6132 171.802 57.6306C172.029 56.648 166.296 54.4854 158.997 52.8003C151.698 51.1153 145.597 50.5458 145.37 51.5285C145.144 52.5111 150.877 54.6737 158.175 56.3587Z" fill="#6C63FF"/>
<path d="M182.638 62.0062C189.937 63.6913 196.038 64.2607 196.265 63.2781C196.491 62.2954 190.759 60.1328 183.46 58.4478C176.161 56.7627 170.06 56.1933 169.833 57.1759C169.607 58.1586 175.339 60.3212 182.638 62.0062Z" fill="#6C63FF"/>
<rect x="260.564" y="79.9973" width="6.48015" height="3.2446" rx="1.6223" transform="rotate(13 260.564 79.9973)" fill="#28316D"/>
<rect x="262.389" y="74.8013" width="4.85766" height="7.29913" rx="2.42883" transform="rotate(13 262.389 74.8013)" fill="#28316D"/>
<path d="M251.291 77.8561C258.589 79.5411 264.69 80.1105 264.917 79.1279C265.144 78.1453 259.411 75.9827 252.112 74.2976C244.813 72.6126 238.713 72.0432 238.486 73.0258C238.259 74.0084 243.992 76.171 251.291 77.8561Z" fill="#6C63FF"/>
<path d="M275.751 83.5038C283.05 85.1888 289.151 85.7582 289.378 84.7756C289.605 83.793 283.872 81.6304 276.573 79.9453C269.274 78.2603 263.174 77.6909 262.947 78.6735C262.72 79.6561 268.453 81.8187 275.751 83.5038Z" fill="#6C63FF"/>
<path d="M158.175 56.3587C165.474 58.0438 171.575 58.6132 171.802 57.6306C172.029 56.648 166.296 54.4854 158.997 52.8003C151.698 51.1153 145.597 50.5458 145.37 51.5285C145.144 52.5111 150.877 54.6737 158.175 56.3587Z" fill="#676D98"/>
<path d="M182.638 62.0062C189.937 63.6913 196.038 64.2607 196.265 63.2781C196.491 62.2954 190.759 60.1328 183.46 58.4478C176.161 56.7627 170.06 56.1933 169.833 57.1759C169.607 58.1586 175.339 60.3212 182.638 62.0062Z" fill="#676D98"/>
<path d="M251.291 77.8561C258.589 79.5411 264.69 80.1105 264.917 79.1279C265.144 78.1453 259.411 75.9827 252.112 74.2976C244.813 72.6126 238.713 72.0432 238.486 73.0258C238.259 74.0084 243.992 76.171 251.291 77.8561Z" fill="#676D98"/>
<path d="M275.751 83.5038C283.05 85.1888 289.151 85.7582 289.378 84.7756C289.605 83.793 283.872 81.6304 276.573 79.9453C269.274 78.2603 263.174 77.6909 262.947 78.6735C262.72 79.6561 268.453 81.8187 275.751 83.5038Z" fill="#676D98"/>
<rect x="205.605" y="83.123" width="16.1955" height="6.4892" rx="3.2446" transform="rotate(13 205.605 83.123)" fill="#6C63FF"/>
<rect x="205.605" y="83.123" width="16.1955" height="6.4892" rx="3.2446" transform="rotate(13 205.605 83.123)" fill="#676D98"/>
<path d="M151.373 216.79C148.805 226.394 142.285 228.243 135.349 226.388C135.188 226.345 135.028 226.301 134.87 226.254C134.55 226.161 134.236 226.061 133.927 225.955C127.788 223.831 123.867 219.005 126.256 210.073C128.728 200.83 143.482 192.276 144.585 191.647C144.586 191.647 144.586 191.647 144.587 191.647C144.629 191.623 144.65 191.611 144.65 191.611C144.65 191.611 153.941 207.187 151.373 216.79Z" fill="#2CCBBB"/>
<path d="M151.373 216.79C148.805 226.394 142.285 228.243 135.349 226.388C135.188 226.345 135.028 226.301 134.87 226.254C134.55 226.161 134.236 226.061 133.927 225.955C127.788 223.831 123.867 219.005 126.256 210.073C128.728 200.83 143.482 192.276 144.585 191.647C144.586 191.647 144.586 191.647 144.587 191.647C144.629 191.623 144.65 191.611 144.65 191.611C144.65 191.611 153.941 207.187 151.373 216.79Z" fill="url(#paint7_radial)" fill-opacity="0.5"/>
<path d="M153.867 148.503C150.471 157.846 143.815 159.12 137.068 156.668C136.911 156.611 136.755 156.553 136.602 156.493C136.291 156.372 135.987 156.245 135.689 156.112C129.758 153.461 126.273 148.312 129.431 139.622C132.699 130.629 148.142 123.394 149.296 122.864C149.297 122.864 149.297 122.864 149.298 122.863C149.342 122.843 149.364 122.833 149.364 122.833C149.364 122.833 157.262 139.16 153.867 148.503Z" fill="#2CCBBB"/>
<path d="M153.867 148.503C150.471 157.846 143.815 159.12 137.068 156.668C136.911 156.611 136.755 156.553 136.602 156.493C136.291 156.372 135.987 156.245 135.689 156.112C129.758 153.461 126.273 148.312 129.431 139.622C132.699 130.629 148.142 123.394 149.296 122.864C149.297 122.864 149.297 122.864 149.298 122.863C149.342 122.843 149.364 122.833 149.364 122.833C149.364 122.833 157.262 139.16 153.867 148.503Z" fill="url(#paint8_radial)" fill-opacity="0.5"/>
<path d="M145.873 127.352C138.846 134.385 132.275 132.727 127.196 127.653C127.078 127.535 126.962 127.416 126.848 127.297C126.618 127.057 126.396 126.813 126.182 126.566C121.927 121.657 120.944 115.517 127.479 108.976C134.241 102.207 151.295 102.177 152.565 102.184C152.566 102.184 152.566 102.184 152.567 102.184C152.615 102.184 152.64 102.185 152.64 102.185C152.64 102.185 152.898 120.32 145.873 127.352Z" fill="#2CCBBB"/>
<path d="M145.873 127.352C138.846 134.385 132.275 132.727 127.196 127.653C127.078 127.535 126.962 127.416 126.848 127.297C126.618 127.057 126.396 126.813 126.182 126.566C121.927 121.657 120.944 115.517 127.479 108.976C134.241 102.207 151.295 102.177 152.565 102.184C152.566 102.184 152.566 102.184 152.567 102.184C152.615 102.184 152.64 102.185 152.64 102.185C152.64 102.185 152.898 120.32 145.873 127.352Z" fill="url(#paint9_radial)" fill-opacity="0.5"/>
<path d="M90.7115 78.8892C96.2747 87.1285 93.3931 93.2622 87.443 97.2798C87.3048 97.3731 87.1662 97.4644 87.0273 97.5537C86.7474 97.7338 86.4659 97.9053 86.1828 98.0682C80.552 101.308 74.3375 101.101 69.1637 93.4388C63.8095 85.509 67.0336 68.7623 67.2825 67.5169C67.2832 67.5165 67.2832 67.5165 67.2834 67.5154C67.2928 67.468 67.2978 67.4441 67.2978 67.4441C67.2978 67.4441 85.1487 70.6505 90.7115 78.8892Z" fill="#2CCBBB"/>
<path d="M90.7115 78.8892C96.2747 87.1285 93.3931 93.2622 87.443 97.2798C87.3048 97.3731 87.1662 97.4644 87.0273 97.5537C86.7474 97.7338 86.4659 97.9053 86.1828 98.0682C80.552 101.308 74.3375 101.101 69.1637 93.4388C63.8095 85.509 67.0336 68.7623 67.2825 67.5169C67.2832 67.5165 67.2832 67.5165 67.2834 67.5154C67.2928 67.468 67.2978 67.4441 67.2978 67.4441C67.2978 67.4441 85.1487 70.6505 90.7115 78.8892Z" fill="url(#paint10_radial)" fill-opacity="0.5"/>
<path d="M84.8073 142.556C89.7822 151.163 86.4797 157.081 80.2639 160.674C80.1195 160.757 79.9749 160.839 79.83 160.918C79.5383 161.078 79.2455 161.23 78.9517 161.372C73.1086 164.212 66.9237 163.572 62.297 155.567C57.509 147.283 61.8934 130.802 62.2286 129.577C62.2293 129.577 62.2293 129.577 62.2296 129.576C62.2423 129.529 62.249 129.505 62.249 129.505C62.249 129.505 79.8327 133.949 84.8073 142.556Z" fill="#2CCBBB"/>
<path d="M84.8073 142.556C89.7822 151.163 86.4797 157.081 80.2639 160.674C80.1195 160.757 79.9749 160.839 79.83 160.918C79.5383 161.078 79.2455 161.23 78.9517 161.372C73.1086 164.212 66.9237 163.572 62.297 155.567C57.509 147.283 61.8934 130.802 62.2286 129.577C62.2293 129.577 62.2293 129.577 62.2296 129.576C62.2423 129.529 62.249 129.505 62.249 129.505C62.249 129.505 79.8327 133.949 84.8073 142.556Z" fill="url(#paint11_radial)" fill-opacity="0.5"/>
<path d="M144.387 92.2262C138 99.845 131.31 98.7657 125.808 94.1535C125.68 94.0464 125.554 93.9383 125.43 93.8293C125.179 93.61 124.937 93.3867 124.702 93.1594C120.036 88.6398 118.522 82.609 124.461 75.5236C130.608 68.191 147.595 66.6742 148.86 66.5703C148.861 66.5708 148.861 66.5708 148.862 66.5707C148.91 66.5666 148.935 66.5649 148.935 66.5649C148.935 66.5649 150.773 84.6081 144.387 92.2262Z" fill="#2CCBBB"/>
<path d="M144.387 92.2262C138 99.845 131.31 98.7657 125.808 94.1535C125.68 94.0464 125.554 93.9383 125.43 93.8293C125.179 93.61 124.937 93.3867 124.702 93.1594C120.036 88.6398 118.522 82.609 124.461 75.5236C130.608 68.191 147.595 66.6742 148.86 66.5703C148.861 66.5708 148.861 66.5708 148.862 66.5707C148.91 66.5666 148.935 66.5649 148.935 66.5649C148.935 66.5649 150.773 84.6081 144.387 92.2262Z" fill="url(#paint12_radial)" fill-opacity="0.5"/>
<path d="M121.526 23.2382C123.257 33.0279 118.13 37.4592 111.06 38.7094C110.896 38.7385 110.732 38.7655 110.569 38.7905C110.24 38.8413 109.913 38.8835 109.588 38.9171C103.126 39.5867 97.5333 36.8701 95.9234 27.7656C94.2574 18.3437 104.014 4.35616 104.748 3.31971C104.749 3.31957 104.749 3.31957 104.75 3.31864C104.778 3.27915 104.792 3.25934 104.792 3.25934C104.792 3.25934 119.795 13.4492 121.526 23.2382Z" fill="#2CCBBB"/>
<path d="M121.526 23.2382C123.257 33.0279 118.13 37.4592 111.06 38.7094C110.896 38.7385 110.732 38.7655 110.569 38.7905C110.24 38.8413 109.913 38.8835 109.588 38.9171C103.126 39.5867 97.5333 36.8701 95.9234 27.7656C94.2574 18.3437 104.014 4.35616 104.748 3.31971C104.749 3.31957 104.749 3.31957 104.75 3.31864C104.778 3.27915 104.792 3.25934 104.792 3.25934C104.792 3.25934 119.795 13.4492 121.526 23.2382Z" fill="url(#paint13_radial)" fill-opacity="0.5"/>
<path opacity="0.66" d="M106.543 283.831C146.791 283.831 179.419 278.318 179.419 271.518C179.419 264.717 146.791 259.204 106.543 259.204C66.294 259.204 33.666 264.717 33.666 271.518C33.666 278.318 66.294 283.831 106.543 283.831Z" fill="#25AC9F"/>
<path d="M107.43 261.103L140.577 214.701L107.349 266.195L107.263 271.521C104.942 271.473 102.644 271.368 100.372 271.207L103.912 202.813L103.884 202.284L103.945 202.183L104.281 195.72L70.9199 144.13L104.379 190.879L104.463 192.249L107.138 140.575L78.5738 87.2605L107.484 131.493L110.243 24.3568L110.254 24.0002L110.254 24.3512L109.828 108.84L138.216 75.3314L109.709 116.116L108.98 162.385L135.493 117.97L108.877 169.188L108.473 194.916L146.95 133.09L108.327 203.891L107.43 261.103Z" fill="#030D54"/>
<defs>
<linearGradient id="paint0_linear" x1="4" y1="203.963" x2="4" y2="504.983" gradientUnits="userSpaceOnUse">
<stop stop-color="white" stop-opacity="0.01"/>
<stop offset="1" stop-color="white"/>
</linearGradient>
<linearGradient id="paint1_linear" x1="10.2207" y1="145.38" x2="10.2207" y2="272.349" gradientUnits="userSpaceOnUse">
<stop stop-color="white" stop-opacity="0.01"/>
<stop offset="1" stop-color="white"/>
</linearGradient>
<linearGradient id="paint2_linear" x1="340" y1="317" x2="340" y2="332.94" gradientUnits="userSpaceOnUse">
<stop stop-color="white" stop-opacity="0.01"/>
<stop offset="1" stop-color="white"/>
</linearGradient>
<linearGradient id="paint3_linear" x1="340" y1="323.381" x2="340" y2="342.622" gradientUnits="userSpaceOnUse">
<stop stop-color="white" stop-opacity="0.01"/>
<stop offset="1" stop-color="white"/>
</linearGradient>
<linearGradient id="paint4_linear" x1="13" y1="494" x2="13" y2="512.788" gradientUnits="userSpaceOnUse">
<stop stop-color="white" stop-opacity="0.01"/>
<stop offset="1" stop-color="white"/>
</linearGradient>
<linearGradient id="paint5_linear" x1="13" y1="501.522" x2="13" y2="524.201" gradientUnits="userSpaceOnUse">
<stop stop-color="white" stop-opacity="0.01"/>
<stop offset="1" stop-color="white"/>
</linearGradient>
<linearGradient id="paint6_linear" x1="280.56" y1="136.608" x2="293.558" y2="80.3095" gradientUnits="userSpaceOnUse">
<stop stop-color="#808080" stop-opacity="0.25"/>
<stop offset="0.54" stop-color="#808080" stop-opacity="0.12"/>
<stop offset="1" stop-color="#808080" stop-opacity="0.1"/>
</linearGradient>
<radialGradient id="paint7_radial" cx="0" cy="0" r="1" gradientUnits="userSpaceOnUse" gradientTransform="translate(144.661 191.613) rotate(105) scale(36 26)">
<stop stop-color="white" stop-opacity="0.01"/>
<stop offset="1" stop-color="white"/>
</radialGradient>
<radialGradient id="paint8_radial" cx="0" cy="0" r="1" gradientUnits="userSpaceOnUse" gradientTransform="translate(149.374 122.837) rotate(110) scale(36 26)">
<stop stop-color="white" stop-opacity="0.01"/>
<stop offset="1" stop-color="white"/>
</radialGradient>
<radialGradient id="paint9_radial" cx="0" cy="0" r="1" gradientUnits="userSpaceOnUse" gradientTransform="translate(152.647 102.192) rotate(135) scale(36 26)">
<stop stop-color="white" stop-opacity="0.01"/>
<stop offset="1" stop-color="white"/>
</radialGradient>
<radialGradient id="paint10_radial" cx="0" cy="0" r="1" gradientUnits="userSpaceOnUse" gradientTransform="translate(67.3068 67.438) rotate(56) scale(36 26)">
<stop stop-color="white" stop-opacity="0.01"/>
<stop offset="1" stop-color="white"/>
</radialGradient>
<radialGradient id="paint11_radial" cx="0" cy="0" r="1" gradientUnits="userSpaceOnUse" gradientTransform="translate(62.2583 129.5) rotate(60) scale(36 26)">
<stop stop-color="white" stop-opacity="0.01"/>
<stop offset="1" stop-color="white"/>
</radialGradient>
<radialGradient id="paint12_radial" cx="0" cy="0" r="1" gradientUnits="userSpaceOnUse" gradientTransform="translate(148.943 66.5718) rotate(130) scale(36 26)">
<stop stop-color="white" stop-opacity="0.01"/>
<stop offset="1" stop-color="white"/>
</radialGradient>
<radialGradient id="paint13_radial" cx="0" cy="0" r="1" gradientUnits="userSpaceOnUse" gradientTransform="translate(104.803 3.25747) rotate(80) scale(36 26)">
<stop stop-color="white" stop-opacity="0.01"/>
<stop offset="1" stop-color="white"/>
</radialGradient>
</defs>
</svg>
