<svg width="102" height="40" viewBox="0 0 102 40" fill="none" xmlns="http://www.w3.org/2000/svg">
<path fill-rule="evenodd" clip-rule="evenodd" d="M33.7509 10.3591H46.5423V14.1757H37.9528V17.5343H44.6731V21.2022H37.9528V26.4058H33.7509V10.3591Z" fill="#030D54"/>
<path fill-rule="evenodd" clip-rule="evenodd" d="M54.8433 20.9271V19.5975C54.8433 18.52 53.808 17.7178 52.4507 17.7178C50.8402 17.7178 49.8049 18.6805 49.8049 20.2851C49.8049 21.8441 50.8402 22.8298 52.4507 22.8298C53.808 22.8298 54.8433 22.0045 54.8433 20.9271ZM59.2605 14.2562V26.4058H55.0043V25.1679H54.9583C54.2451 26.0848 52.9107 26.6122 51.4383 26.6122C47.9412 26.6122 45.3876 23.9759 45.3876 20.331C45.3876 16.6862 47.9412 14.0498 51.4383 14.0498C52.7958 14.0498 54.1302 14.5541 54.9583 15.3337H55.0043V14.2562H59.2605Z" fill="#030D54"/>
<path fill-rule="evenodd" clip-rule="evenodd" d="M67.0232 17.649V21.4543C67.0232 22.188 67.3683 22.5087 68.1045 22.5087H70.1687V26.4059H67.3452C64.0784 26.4059 62.606 24.87 62.606 21.9357V17.649H60.0414V14.2562H62.606V11.0468H67.0232V14.2562H70.1687V17.649H67.0232Z" fill="#030D54"/>
<path fill-rule="evenodd" clip-rule="evenodd" d="M0.0537109 23.7192H4.44898V35.8232H12.6612V39.7661H0.0537109V23.7192Z" fill="#030D54"/>
<path fill-rule="evenodd" clip-rule="evenodd" d="M13.7269 39.7661H18.1441V23.0316H13.7269V39.7661Z" fill="#030D54"/>
<path fill-rule="evenodd" clip-rule="evenodd" d="M28.2305 34.2873V32.9577C28.2305 31.8802 27.1951 31.078 25.8378 31.078C24.2273 31.078 23.192 32.0406 23.192 33.6453C23.192 35.2042 24.2273 36.19 25.8378 36.19C27.1951 36.19 28.2305 35.3646 28.2305 34.2873ZM32.6477 27.6163V39.7661H28.3914V38.5281H28.3454C27.6322 39.4451 26.2978 39.9724 24.8253 39.9724C21.3284 39.9724 18.7748 37.336 18.7748 33.6912C18.7748 30.0463 21.3284 27.41 24.8253 27.41C26.1829 27.41 27.5173 27.9144 28.3454 28.6939H28.3914V27.6163H32.6477Z" fill="#030D54"/>
<path fill-rule="evenodd" clip-rule="evenodd" d="M33.7509 27.6163H37.9151V28.6939H37.961C38.7892 27.7539 40.1006 27.2725 41.6422 27.2725C43.2526 27.2725 44.6099 27.8455 45.5302 28.8772H45.5762C46.6116 27.8686 48.107 27.2725 49.8093 27.2725C53.0302 27.2725 55.5841 29.4045 55.5841 32.4076V39.7661H51.2818V33.0494C51.2818 31.7655 50.3847 30.9404 49.0042 30.9404C47.6468 30.9404 46.7035 31.7886 46.7035 33.0494V39.7661H42.6314V33.0494C42.6314 31.7655 41.7572 30.9404 40.3768 30.9404C38.9963 30.9404 38.0532 31.7886 38.0532 33.0494V39.7661H33.7509V27.6163Z" fill="#030D54"/>
<path fill-rule="evenodd" clip-rule="evenodd" d="M65.7515 34.2873V32.9577C65.7515 31.8802 64.7162 31.078 63.3589 31.078C61.7484 31.078 60.7131 32.0406 60.7131 33.6453C60.7131 35.2042 61.7484 36.19 63.3589 36.19C64.7162 36.19 65.7515 35.3646 65.7515 34.2873ZM70.1687 27.6163V39.7661H65.9125V38.5281H65.8665C65.1533 39.4451 63.8189 39.9724 62.3464 39.9724C58.8495 39.9724 56.2958 37.336 56.2958 33.6912C56.2958 30.0463 58.8495 27.41 62.3464 27.41C63.7039 27.41 65.0384 27.9144 65.8665 28.6939H65.9125V27.6163H70.1687Z" fill="#030D54"/>
<path fill-rule="evenodd" clip-rule="evenodd" d="M101.772 23.9956C102.012 23.3366 102.19 22.1794 101.32 21.5515C101.213 20.8281 100.74 20.5287 100.298 20.2767L100.297 20.2745C99.9487 19.3195 99.5586 19.1105 98.5476 18.9813C98.153 18.0502 97.2642 17.5774 96.0586 17.7228C95.623 17.3421 94.6975 16.6334 93.5563 16.9681C92.6119 16.5748 91.618 16.2931 90.7009 16.8467C89.6415 16.519 89.034 16.5804 88.3793 16.9596C87.8708 16.83 87.0981 16.692 86.3498 16.9184C86.0105 16.4381 85.8208 16.192 84.6379 16.0247C83.6757 15.8886 83.9074 14.3778 83.5756 13.2535C83.3061 12.3403 82.7336 12.0428 82.5564 11.8876C82.714 10.7294 82.3864 10.3027 82.0327 9.90593C81.6585 6.74401 81.158 5.42378 80.6773 4.65747C80.4304 4.26401 80.0496 3.83235 79.6265 3.5368C79.6107 2.70254 79.174 1.22975 78.3316 1.38694C77.6902 0.507274 76.8574 0.112457 76.2416 0.112457C75.608 0.112457 75.0487 0.675274 75.2146 1.41364C75.2854 1.72902 75.4497 2.09015 75.5065 2.22682C75.0629 2.09725 74.069 1.85804 73.8785 2.36395C73.809 2.54829 73.9417 3.00519 75.1667 4.06919C74.6009 4.52418 74.5996 5.20756 74.8101 5.50919C74.0532 5.96654 73.3603 6.52305 72.8823 6.95145C72.5828 7.22018 72.8968 7.64508 72.8243 7.81894C72.6868 8.14863 72.714 8.6044 72.9351 8.78086C73.5839 9.29838 75.0336 9.47663 75.924 9.30164C75.9744 9.60587 76.0722 9.79629 76.4164 10.0753C76.3296 10.2231 76.145 10.6754 76.0768 10.8792C75.9108 11.3754 76.016 11.7378 76.1672 11.9247C75.7501 12.5077 76.0038 13.1454 76.2941 13.476C76.0307 14.138 75.7169 14.3409 75.6274 15.1566C75.5569 15.7993 75.8901 16.3237 76.0611 16.5051C75.9326 16.8874 75.7949 17.2861 75.8022 17.6253C75.8106 18.0149 75.9657 18.36 76.3017 18.5526C76.2727 18.6118 75.8686 19.3644 75.7803 19.8867C75.6983 20.3713 75.8565 20.7605 75.984 20.9433C75.7838 21.476 75.7711 21.9962 75.8729 22.3641C75.9808 22.7542 76.1421 23.0674 76.5868 23.3473C76.499 24.0521 76.4694 25.0088 76.8944 25.8744C77.1906 26.4779 77.9477 27.0494 78.0572 27.2862C78.2442 27.6911 78.1438 28.3883 78.7955 28.8409C78.793 28.8872 78.6029 29.8891 79.7577 30.5718C80.0609 30.7511 80.2469 30.9205 80.2014 31.433C80.1646 31.8485 80.0986 32.6232 80.7378 33.3144C80.6634 33.9394 80.641 34.5085 81.4905 35.1606C81.2065 36.5679 82.0711 37.1393 82.5267 37.3232V37.948C82.5267 38.3245 82.4047 38.3566 82.1539 38.4854C81.7421 38.6969 81.4071 38.9313 81.4071 39.3831C81.4071 39.6677 81.6601 39.928 81.9689 39.9716C82.1285 39.994 83.0043 39.9706 83.2397 39.9706C83.7997 39.9706 84.0368 39.5854 84.0368 39.0244C84.0368 38.7474 84.0368 37.9787 84.0368 37.2571C84.0929 37.2347 84.1471 37.2093 84.1983 37.1801C84.7731 36.8517 85.0363 36.3329 84.969 35.3357C85.5662 34.7596 85.3513 34.079 85.3054 33.8641C85.5864 33.6466 85.6115 33.4415 85.6115 33.4415C85.6115 33.4415 85.8759 33.6872 85.8982 34.0959C85.9206 34.5076 85.8203 34.6364 85.8203 35.0397C85.8203 35.3839 85.9012 35.6955 86.0537 35.9401C86.2175 36.2189 86.4615 36.4451 86.754 36.5879V37.948C86.754 38.3245 86.6321 38.3566 86.3813 38.4854C85.9693 38.6969 85.6345 38.9313 85.6345 39.3831C85.6345 39.6677 85.8873 39.928 86.196 39.9716C86.3556 39.994 87.2315 39.9706 87.4671 39.9706C88.0269 39.9706 88.2641 39.5854 88.2641 39.0244C88.2641 38.6529 88.2641 37.3975 88.2641 36.557C88.4092 36.4783 89.1296 36.0466 89.1296 35.245C89.1296 34.678 89.027 34.6257 89.027 34.3115C89.027 33.9693 89.2902 33.816 89.2902 33.2175C89.2902 32.7205 89.0132 32.4624 89.021 32.1943C89.034 31.7463 89.4944 31.6459 89.559 30.9715C89.6148 30.3884 89.3723 30.0289 89.2356 29.8835C90.1957 30.6238 90.9951 29.1903 91.5756 28.9154C91.5721 29.5828 91.5955 31.1026 92.1679 31.7305C92.2521 31.8229 92.2978 31.9431 92.2895 32.0676C92.2608 32.4962 92.2221 33.2784 92.2872 33.8209C92.3766 34.5671 92.6287 35.0775 93.1139 35.3758C93.099 35.7995 93.2417 36.773 93.9604 37.1347C94.014 37.1617 94.0679 37.1855 94.1216 37.2069V37.948C94.1216 38.3245 93.9996 38.3566 93.7488 38.4854C93.3369 38.6969 93.002 38.9313 93.002 39.3831C93.002 39.6677 93.2549 39.928 93.5637 39.9716C93.7232 39.994 94.599 39.9706 94.8346 39.9706C95.3946 39.9706 95.6317 39.5854 95.6317 39.0244C95.6317 38.746 95.6317 37.9714 95.6317 37.2468C96.449 36.8336 96.6502 35.999 96.6821 35.6854C96.8616 35.6458 97.1635 35.5028 97.3648 35.1278C97.384 35.7818 97.7821 36.3408 98.3486 36.5938V37.948C98.3486 38.3245 98.2265 38.3566 97.9766 38.4854C97.5638 38.6969 97.2291 38.9313 97.2291 39.3831C97.2291 39.6677 97.4824 39.928 97.7911 39.9716C97.9506 39.994 98.8258 39.9706 99.0622 39.9706C99.6219 39.9706 99.8594 39.5854 99.8594 39.0244C99.8594 38.6463 99.8594 37.3527 99.8594 36.5127C100.349 36.2272 100.686 35.6995 100.694 35.0986C100.696 34.8613 100.649 34.6353 100.562 34.4304C100.482 34.2468 100.503 34.036 100.602 33.8629C100.7 33.6935 100.802 33.5146 100.809 33.2449C100.823 32.6257 100.433 32.3271 100.433 31.9561C100.433 31.35 100.817 31.2615 100.916 30.553C100.977 30.1124 100.896 29.812 100.688 29.2577C100.519 28.8064 100.81 28.575 100.94 28.1881C101.066 27.812 100.944 27.3116 100.802 26.9507C101.162 26.5724 102.236 25.4008 101.772 23.9956Z" fill="#030D54"/>
<path fill-rule="evenodd" clip-rule="evenodd" d="M76.6457 6.72982C76.6082 6.77421 76.5235 6.75776 76.4101 6.71742C76.2978 6.67799 76.0902 6.58244 75.9104 6.60565C75.7306 6.62886 75.6368 6.75156 75.59 6.7652C75.566 6.77263 75.5227 6.75585 75.5045 6.7137C75.424 6.52632 75.618 6.34221 75.7306 6.29072C76.0392 6.14976 76.3503 6.25624 76.5669 6.50086C76.6376 6.58075 76.6833 6.68542 76.6457 6.72982Z" fill="#FFFFFE"/>
<path fill-rule="evenodd" clip-rule="evenodd" d="M101.076 22.7891C100.999 22.2997 100.547 22.3421 100.456 21.6879C100.372 21.0854 99.6807 21.1479 99.493 20.6223C99.2578 19.9641 99.2974 19.9975 98.3396 19.8301C97.5819 19.6976 97.8499 18.8008 96.8865 18.6C96.229 18.4628 95.9657 18.8371 95.543 18.4326C95.1598 18.0659 94.5431 17.6766 93.6957 17.8333C92.808 17.9975 92.4159 16.929 91.0498 17.6543C90.5325 17.9289 89.8068 17.1522 88.81 17.7212C88.2797 18.0241 87.4939 17.4881 86.3692 17.7998C85.5481 18.0271 85.8745 16.9795 84.5995 16.8955C82.777 16.7757 83.1045 14.6166 82.7442 13.5266C82.4895 12.7563 82.1563 12.8313 81.8198 12.3619C81.5218 11.9464 81.8198 11.4901 81.6852 10.9537C81.5767 10.5216 81.2469 10.5838 81.1467 9.74659C80.8761 7.48371 80.4618 5.93847 79.9354 5.11954C79.5928 4.5867 79.0787 4.14918 78.7533 4.06152C78.8926 2.90062 78.3986 2.1849 78.2051 2.25802C78.1171 2.29138 78.1599 2.83245 78.1599 2.83245C78.1599 2.83245 77.6244 1.29802 76.3682 0.998869C76.1311 0.942418 76.0356 1.05723 76.0628 1.19943C76.1841 1.83785 76.6628 2.99684 77.4452 3.97949C76.5536 3.97949 75.5766 4.58828 75.5775 5.0774C75.5781 5.34907 76.9317 4.60349 77.1086 4.98535C77.2204 5.22636 76.7402 5.5689 76.9068 5.79008C77.1086 6.05836 78.2701 5.48777 78.3874 5.79008C78.5115 6.11008 77.647 6.32653 77.647 6.59481C77.647 6.91729 78.3874 6.99718 78.3874 7.26535C78.3874 7.68957 77.3779 7.39943 77.3779 7.66771C77.3779 7.936 78.2515 8.07662 78.1854 8.4054C78.1181 8.74073 77.5125 8.53949 76.9741 8.80777C76.7371 8.92585 76.7011 9.24811 76.9741 9.41126C77.3106 9.6125 77.4072 9.8276 77.2927 10.1495C77.1387 10.5829 77.0414 10.7524 76.9068 11.1548C76.8116 11.4393 76.9068 11.5572 77.0414 11.5572C77.3189 11.5572 77.3779 11.7584 77.0414 12.1608C76.8248 12.4196 76.7611 12.638 76.9068 12.8313C77.1086 13.0996 77.1759 13.2337 77.1759 13.4349C77.1759 14.1847 76.2345 14.8593 76.5703 15.7149C76.7419 16.1523 77.2843 16.0141 76.8315 16.9514C76.6305 17.3675 76.5945 17.7861 76.9068 17.9279C77.3178 18.1146 77.3005 18.3737 76.9316 19.1952C76.2177 20.7841 77.1027 20.2504 76.7721 21.3479C76.5703 22.0186 76.7721 22.4208 76.9741 22.555C77.3779 22.8232 77.5125 22.9574 77.4452 23.6279C77.3899 24.1782 77.4019 25.0157 77.6722 25.4648C78.2487 26.4229 78.817 26.439 79.0604 27.6516C79.195 28.3221 79.4121 28.0431 79.5988 28.3221C79.7334 28.5234 79.6661 28.7245 79.6661 28.9928C79.6661 30.0009 80.8776 29.6633 81.0794 31.0715C81.1373 31.4754 80.9448 31.8092 81.1467 32.3457C81.2649 32.6596 81.6869 32.9387 81.6179 33.3517C81.5505 33.754 81.5505 34.0892 81.8198 34.2905C82.0482 34.4612 82.4872 34.8253 82.3581 35.2963C82.1563 36.034 82.5601 36.5705 83.1658 36.5705C83.6173 36.5705 84.1753 36.3693 84.1081 35.6317C84.0695 35.2092 84.0942 34.9184 84.3772 34.6928C84.7138 34.4246 84.2845 33.9514 84.4445 33.5528C84.5792 33.2175 84.8705 33.1773 84.9964 32.8622C85.2027 32.3455 84.9207 32.1219 84.8617 31.8279C84.7561 31.3019 85.0113 31.1168 85.1845 30.6362C85.3596 30.1503 85.1347 29.5842 85.0676 29.1583C85.0159 28.9006 84.9711 28.6079 84.936 28.2946C84.8302 27.3506 84.9805 26.4424 85.2104 26.4229C85.4402 26.4035 85.7059 27.2305 85.8354 28.2913C85.8699 28.5739 85.9313 28.8394 85.9851 29.0775C86.2373 29.0113 86.4481 28.933 86.9176 29.2028C87.0957 29.3052 87.4551 29.5264 87.8389 29.3638C88.5978 29.0425 89.0161 28.1799 89.5715 28.9686C89.9653 29.5275 90.5047 28.0951 91.4536 27.9681C91.4368 27.0108 91.5742 26.4598 91.7887 26.4417C92.0566 26.419 92.343 27.2346 92.4652 28.6715C92.4774 28.8152 92.4894 28.9565 92.5005 29.0946C92.5871 29.8519 92.5178 30.7851 92.9244 31.2057C93.5912 31.8953 92.7695 34.1213 93.5975 34.5985C94.241 34.9693 93.7384 35.5635 94.2032 36.1811C94.607 36.7175 95.3445 36.6344 95.6165 36.114C95.9643 35.449 95.6071 35.2132 96.3568 34.7484C97.0403 34.3244 96.6071 33.29 96.6483 32.7095C96.6933 32.0775 97.3841 32.2501 97.5684 31.8092C97.7256 31.4347 97.3196 30.8409 97.9054 30.2669C98.5149 29.6687 98.7874 29.1047 98.6393 28.5136C98.6359 28.5034 98.6325 28.4932 98.6291 28.4831C98.6178 28.4457 98.6065 28.4082 98.5952 28.3706C98.5895 28.3544 98.5839 28.3384 98.5782 28.3221C98.5658 28.2909 98.5556 28.2562 98.5511 28.219C98.5126 28.0784 98.4843 27.9355 98.4889 27.7896C98.4968 27.5444 98.6099 27.3312 98.7388 27.1259C99.9103 25.2613 99.683 23.7968 99.337 22.3719C99.3053 22.2419 99.2974 22.109 99.346 22.0789C99.3935 22.0487 99.4738 22.067 99.6344 22.229C99.795 22.3909 99.9352 22.6524 100.045 22.9467C100.166 23.2737 100.287 23.6727 100.34 24.129C100.393 24.5851 100.401 25.0951 100.309 25.6299C100.248 25.9842 100.133 26.3461 99.9668 26.6693C99.925 26.7531 99.8775 26.8347 99.8266 26.9139C100.432 26.5998 101.31 25.2086 101.002 24.2821C100.77 23.5848 101.212 23.6629 101.076 22.7891Z" fill="#63FFD4"/>
<path fill-rule="evenodd" clip-rule="evenodd" d="M78.1987 11.037C78.0314 11.0505 77.8984 11.5084 77.9433 12.0599C77.9882 12.6114 78.1939 13.0474 78.3612 13.0339C78.5286 13.0204 78.5943 12.5624 78.5494 12.0109C78.5045 11.4595 78.3661 11.0233 78.1987 11.037ZM77.8197 14.2548C77.6523 14.2683 77.5193 14.7263 77.5642 15.2777C77.6091 15.8292 77.8147 16.2652 77.9821 16.2518C78.1495 16.2383 78.195 15.7803 78.1501 15.2288C78.1052 14.6773 77.9871 14.2412 77.8197 14.2548ZM78.6436 21.9072C78.4241 21.1307 78.0986 20.5428 77.9163 20.5939C77.734 20.6451 77.7642 21.3159 77.9835 22.0924C78.2029 22.8687 78.5286 23.4568 78.7108 23.4056C78.8931 23.3545 78.863 22.6836 78.6436 21.9072ZM79.8186 17.2933C79.8336 17.1509 79.8169 16.8957 79.7678 16.6166C79.7263 16.3805 79.6523 16.1608 79.568 15.9981C79.4736 15.8161 79.3662 15.7057 79.2771 15.724C79.1837 15.7433 79.1185 15.8909 79.0905 16.107C79.0647 16.3048 79.0883 16.5026 79.1354 16.7384C79.1983 17.0537 79.2598 17.1996 79.3761 17.4011C79.4605 17.5468 79.595 17.6498 79.6681 17.6221C79.7636 17.586 79.8013 17.4563 79.8186 17.2933ZM78.8213 18.7339C78.7364 18.2318 78.4539 17.6809 78.2461 17.7262C78.0381 17.7715 78.0485 18.355 78.1361 18.8277C78.2529 19.4587 78.5984 19.9381 78.7813 19.8984C78.964 19.8586 78.8982 19.1885 78.8213 18.7339ZM93.8342 19.9212C93.411 19.8214 93.0345 19.8802 92.9936 20.0527C92.9525 20.2252 93.2626 20.4459 93.6859 20.5458C94.1093 20.6456 94.4857 20.5867 94.5267 20.4143C94.5676 20.2418 94.2576 20.0211 93.8342 19.9212ZM93.6305 28.8094C93.4282 28.8613 93.3769 29.3387 93.5159 29.8757C93.6549 30.4127 93.9315 30.8059 94.1337 30.7539C94.3359 30.702 94.2567 30.2797 94.1177 29.7427C93.9787 29.2056 93.8326 28.7573 93.6305 28.8094ZM79.571 25.6861C79.3954 25.7699 79.4362 26.4437 79.759 27.1149C80.0817 27.7861 80.5641 28.2004 80.7397 28.1166C80.9154 28.0327 80.7179 27.4824 80.3952 26.8113C80.0724 26.1401 79.7467 25.6023 79.571 25.6861ZM93.2327 18.8693C93.2515 18.691 92.8195 18.4256 92.2526 18.3659C91.6857 18.3061 91.1986 18.4749 91.1797 18.6532C91.1608 18.8314 91.6172 18.9517 92.1841 19.0114C92.751 19.071 93.2137 19.0476 93.2327 18.8693ZM97.3309 20.6464C97.4327 20.4705 97.1025 20.0161 96.5428 19.6925C95.9834 19.369 95.4072 19.2989 95.3048 19.4748C95.2022 19.6507 95.6465 19.899 96.2059 20.2226C96.7655 20.5461 97.228 20.8223 97.3309 20.6464ZM94.3987 27.6699C94.3072 27.6967 94.1731 27.5321 94.011 27.2602C93.8476 26.9881 93.65 26.6107 93.4315 26.195C93.2133 25.7793 93.1729 25.7181 93.0424 25.4283C92.912 25.1391 92.8543 24.9346 92.9284 24.876C93.001 24.8187 93.1942 24.9206 93.4345 25.1524C93.9948 25.7781 94.3285 26.4469 94.4624 27.0979C94.5149 27.4279 94.487 27.6442 94.3987 27.6699Z" fill="#030D54"/>
</svg>
